<?xml version="1.0" encoding="UTF-8"?>
<svg version="1.1" xmlns="http://www.w3.org/2000/svg" width="250" height="250">
<path d="M0 0 C0.71004181 0.00215515 1.42008362 0.0043103 2.15164185 0.00653076 C36.35317344 0.17333693 66.66294636 13.74268155 90.83251953 37.79785156 C104.38302174 51.66576903 113.89345279 68.09303759 120.3125 86.3125 C120.58497559 87.07498047 120.85745117 87.83746094 121.13818359 88.62304688 C128.50507988 110.34086008 128.60359049 139.59773049 121.3125 161.3125 C121.09819336 161.98007324 120.88388672 162.64764648 120.66308594 163.33544922 C114.2502391 183.09205815 103.5206399 199.2030975 89.3125 214.3125 C88.7865625 214.90289062 88.260625 215.49328125 87.71875 216.1015625 C73.23924015 231.6891981 52.6312736 241.92378903 32.3125 247.3125 C31.30630615 247.58030273 30.3001123 247.84810547 29.26342773 248.12402344 C19.69106955 250.43352734 10.53687712 250.8710763 0.75 250.8125 C-0.0391983 250.81073761 -0.82839661 250.80897522 -1.64151001 250.80715942 C-14.52687497 250.74315199 -26.4542271 249.64086609 -38.6875 245.3125 C-39.43966797 245.05017578 -40.19183594 244.78785156 -40.96679688 244.51757812 C-72.85302087 233.06490336 -98.81637946 209.73923759 -113.69677734 179.24414062 C-121.20061352 162.9914879 -124.87996903 146.54369025 -124.92773438 128.63964844 C-124.93731993 126.47810557 -124.96833237 124.31756545 -125 122.15625 C-125.09870089 109.31320928 -123.48771896 96.78018445 -118.9375 84.6875 C-118.68145996 83.98858643 -118.42541992 83.28967285 -118.16162109 82.56958008 C-105.93886383 50.10449273 -82.17090336 24.97929866 -50.89453125 10.37060547 C-43.07143282 6.8713803 -35.04059789 4.2208785 -26.6875 2.3125 C-25.89754639 2.12776123 -25.10759277 1.94302246 -24.29370117 1.75268555 C-16.22667587 0.06427328 -8.20535709 -0.04468719 0 0 Z " fill="#033499" transform="translate(124.6875,-0.3125)"/>
<path d="M0 0 C0.71004181 0.00215515 1.42008362 0.0043103 2.15164185 0.00653076 C36.35317344 0.17333693 66.66294636 13.74268155 90.83251953 37.79785156 C104.38302174 51.66576903 113.89345279 68.09303759 120.3125 86.3125 C120.58497559 87.07498047 120.85745117 87.83746094 121.13818359 88.62304688 C128.50507988 110.34086008 128.60359049 139.59773049 121.3125 161.3125 C121.09819336 161.98007324 120.88388672 162.64764648 120.66308594 163.33544922 C114.2502391 183.09205815 103.5206399 199.2030975 89.3125 214.3125 C88.7865625 214.90289062 88.260625 215.49328125 87.71875 216.1015625 C73.23924015 231.6891981 52.6312736 241.92378903 32.3125 247.3125 C31.30630615 247.58030273 30.3001123 247.84810547 29.26342773 248.12402344 C19.69106955 250.43352734 10.53687712 250.8710763 0.75 250.8125 C-0.0391983 250.81073761 -0.82839661 250.80897522 -1.64151001 250.80715942 C-14.52687497 250.74315199 -26.4542271 249.64086609 -38.6875 245.3125 C-39.43966797 245.05017578 -40.19183594 244.78785156 -40.96679688 244.51757812 C-72.85302087 233.06490336 -98.81637946 209.73923759 -113.69677734 179.24414062 C-121.20061352 162.9914879 -124.87996903 146.54369025 -124.92773438 128.63964844 C-124.93731993 126.47810557 -124.96833237 124.31756545 -125 122.15625 C-125.09870089 109.31320928 -123.48771896 96.78018445 -118.9375 84.6875 C-118.68145996 83.98858643 -118.42541992 83.28967285 -118.16162109 82.56958008 C-105.93886383 50.10449273 -82.17090336 24.97929866 -50.89453125 10.37060547 C-43.07143282 6.8713803 -35.04059789 4.2208785 -26.6875 2.3125 C-25.89754639 2.12776123 -25.10759277 1.94302246 -24.29370117 1.75268555 C-16.22667587 0.06427328 -8.20535709 -0.04468719 0 0 Z M-71.5234375 69.51953125 C-83.71666455 85.25627736 -90.28200318 103.98203647 -90 123.8125 C-90.00322266 124.94558594 -90.00644531 126.07867187 -90.00976562 127.24609375 C-89.85161941 152.34821157 -79.71731033 172.75652826 -62.625 190.8125 C-45.49108608 207.54409827 -24.30575543 215.94902491 -0.375 215.75 C0.89520996 215.74315186 2.16541992 215.73630371 3.47412109 215.72924805 C17.35781042 215.49226141 28.91603586 212.71859961 41.3125 206.3125 C42.17875 205.90644531 43.045 205.50039062 43.9375 205.08203125 C64.60074496 194.84051013 79.54374496 175.43430361 86.87890625 153.87109375 C89.24223035 146.46774354 91.13768675 139.1166629 91.3125 131.3125 C91.37050781 129.81009766 91.37050781 129.81009766 91.4296875 128.27734375 C91.94059303 104.46346927 83.95342563 81.75654702 67.46337891 64.45654297 C66.09281907 63.06222993 64.70288718 61.68704231 63.3125 60.3125 C62.51070312 59.50039063 61.70890625 58.68828125 60.8828125 57.8515625 C51.12579967 48.47843214 39.13522976 42.40585025 26.3125 38.3125 C25.31863281 37.9928125 24.32476562 37.673125 23.30078125 37.34375 C-12.94654126 27.71346505 -47.53983493 42.18839404 -71.5234375 69.51953125 Z " fill="#F6F8FB" transform="translate(124.6875,-0.3125)"/>
<path d="M0 0 C0.71004181 0.00215515 1.42008362 0.0043103 2.15164185 0.00653076 C36.35317344 0.17333693 66.66294636 13.74268155 90.83251953 37.79785156 C104.38302174 51.66576903 113.89345279 68.09303759 120.3125 86.3125 C120.58497559 87.07498047 120.85745117 87.83746094 121.13818359 88.62304688 C128.50507988 110.34086008 128.60359049 139.59773049 121.3125 161.3125 C121.09819336 161.98007324 120.88388672 162.64764648 120.66308594 163.33544922 C114.2502391 183.09205815 103.5206399 199.2030975 89.3125 214.3125 C88.7865625 214.90289062 88.260625 215.49328125 87.71875 216.1015625 C73.23924015 231.6891981 52.6312736 241.92378903 32.3125 247.3125 C31.30630615 247.58030273 30.3001123 247.84810547 29.26342773 248.12402344 C19.69106955 250.43352734 10.53687712 250.8710763 0.75 250.8125 C-0.0391983 250.81073761 -0.82839661 250.80897522 -1.64151001 250.80715942 C-14.52687497 250.74315199 -26.4542271 249.64086609 -38.6875 245.3125 C-39.43966797 245.05017578 -40.19183594 244.78785156 -40.96679688 244.51757812 C-72.85302087 233.06490336 -98.81637946 209.73923759 -113.69677734 179.24414062 C-121.20061352 162.9914879 -124.87996903 146.54369025 -124.92773438 128.63964844 C-124.93731993 126.47810557 -124.96833237 124.31756545 -125 122.15625 C-125.09870089 109.31320928 -123.48771896 96.78018445 -118.9375 84.6875 C-118.68145996 83.98858643 -118.42541992 83.28967285 -118.16162109 82.56958008 C-105.93886383 50.10449273 -82.17090336 24.97929866 -50.89453125 10.37060547 C-43.07143282 6.8713803 -35.04059789 4.2208785 -26.6875 2.3125 C-25.89754639 2.12776123 -25.10759277 1.94302246 -24.29370117 1.75268555 C-16.22667587 0.06427328 -8.20535709 -0.04468719 0 0 Z M-77.6875 32.3125 C-78.68394531 33.13234375 -79.68039063 33.9521875 -80.70703125 34.796875 C-103.00562399 54.08530384 -117.50907364 82.01466305 -120.6875 111.3125 C-121.6100156 125.81185715 -121.59494534 140.24569678 -117.6875 154.3125 C-117.48253906 155.22773438 -117.27757813 156.14296875 -117.06640625 157.0859375 C-112.38789998 176.90420629 -101.25217515 194.44626681 -87.6875 209.3125 C-86.72263672 210.40111328 -86.72263672 210.40111328 -85.73828125 211.51171875 C-67.72564958 230.77468494 -39.41761229 244.75468584 -13.06933594 246.484375 C-7.93386195 246.63818927 -2.81939154 246.53322652 2.3125 246.3125 C1.9825 245.3225 1.6525 244.3325 1.3125 243.3125 C2.7975 244.3025 2.7975 244.3025 4.3125 245.3125 C6.93781524 245.47963569 6.93781524 245.47963569 9.3125 245.3125 C9.6425 244.3225 9.9725 243.3325 10.3125 242.3125 C8.6625 242.3125 7.0125 242.3125 5.3125 242.3125 C5.3125 241.6525 5.3125 240.9925 5.3125 240.3125 C5.9725 240.3125 6.6325 240.3125 7.3125 240.3125 C7.3125 237.3425 7.3125 234.3725 7.3125 231.3125 C5.3325 231.3125 3.3525 231.3125 1.3125 231.3125 C1.86978913 234.65623475 2.66423889 237.34562999 4.3125 240.3125 C1.97725218 238.05509377 0.12544927 236.0319239 -1.6875 233.3125 C-3.0075 233.6425 -4.3275 233.9725 -5.6875 234.3125 C-6.3475 232.9925 -7.0075 231.6725 -7.6875 230.3125 C-5.7075 230.3125 -3.7275 230.3125 -1.6875 230.3125 C-1.6875 230.9725 -1.6875 231.6325 -1.6875 232.3125 C-1.0275 232.3125 -0.3675 232.3125 0.3125 232.3125 C0.3125 231.6525 0.3125 230.9925 0.3125 230.3125 C2.6225 230.3125 4.9325 230.3125 7.3125 230.3125 C7.3125 229.3225 7.3125 228.3325 7.3125 227.3125 C4.3425 227.3125 1.3725 227.3125 -1.6875 227.3125 C-1.6875 226.6525 -1.6875 225.9925 -1.6875 225.3125 C2.6025 225.3125 6.8925 225.3125 11.3125 225.3125 C10.9825 225.9725 10.6525 226.6325 10.3125 227.3125 C10.2152114 229.43568064 10.18272381 231.56209691 10.1875 233.6875 C10.18492187 234.82960937 10.18234375 235.97171875 10.1796875 237.1484375 C10.28935026 239.76099151 10.5973059 241.8263491 11.3125 244.3125 C11.3125 244.9725 11.3125 245.6325 11.3125 246.3125 C13.91716543 246.00377671 16.52117691 245.69068277 19.125 245.375 C20.23198242 245.24448242 20.23198242 245.24448242 21.36132812 245.11132812 C24.47983121 244.73033454 27.32358122 244.30880626 30.3125 243.3125 C29.9825 241.9925 29.6525 240.6725 29.3125 239.3125 C31.6225 239.6425 33.9325 239.9725 36.3125 240.3125 C36.6425 238.9925 36.9725 237.6725 37.3125 236.3125 C35.9925 236.3125 34.6725 236.3125 33.3125 236.3125 C33.6425 235.3225 33.9725 234.3325 34.3125 233.3125 C33.43335312 230.6555809 33.43335312 230.6555809 32.3125 228.3125 C31.3225 228.3125 30.3325 228.3125 29.3125 228.3125 C29.9725 227.9825 30.6325 227.6525 31.3125 227.3125 C30.9825 225.9925 30.6525 224.6725 30.3125 223.3125 C28.9925 223.3125 27.6725 223.3125 26.3125 223.3125 C26.3125 225.9525 26.3125 228.5925 26.3125 231.3125 C27.6325 231.9725 28.9525 232.6325 30.3125 233.3125 C30.3125 234.3025 30.3125 235.2925 30.3125 236.3125 C25.8575 232.8475 25.8575 232.8475 21.3125 229.3125 C22.64583333 229.3125 23.97916667 229.3125 25.3125 229.3125 C24.9825 227.9925 24.6525 226.6725 24.3125 225.3125 C22.0025 225.6425 19.6925 225.9725 17.3125 226.3125 C17.3125 225.6525 17.3125 224.9925 17.3125 224.3125 C18.14394531 224.10753906 18.97539062 223.90257812 19.83203125 223.69140625 C21.46205078 223.28728516 21.46205078 223.28728516 23.125 222.875 C24.20394531 222.60816406 25.28289062 222.34132812 26.39453125 222.06640625 C28.3865843 221.55172588 30.36061524 220.96312825 32.3125 220.3125 C32.61994141 221.45138672 32.61994141 221.45138672 32.93359375 222.61328125 C33.20300781 223.60714844 33.47242188 224.60101563 33.75 225.625 C34.01683594 226.61113281 34.28367188 227.59726563 34.55859375 228.61328125 C35.09329425 230.52767526 35.68394538 232.42683615 36.3125 234.3125 C36.9725 234.6425 37.6325 234.9725 38.3125 235.3125 C38.9375 237.875 38.9375 237.875 39.3125 240.3125 C69.11385574 231.29384317 93.48724625 209.39464034 108.0625 182.1875 C117.06030465 164.84496976 121.69048475 147.18654868 121.62817383 127.63476562 C121.62502509 125.57888082 121.64852485 123.52445714 121.67382812 121.46875 C121.80188372 94.64962032 111.50111684 68.78092359 94.3125 48.3125 C93.21808594 47.00925781 93.21808594 47.00925781 92.1015625 45.6796875 C76.59856321 27.89203568 57.93380899 16.21155535 35.625 9 C34.87766602 8.75733398 34.13033203 8.51466797 33.36035156 8.26464844 C-5.10671406 -3.55465421 -47.34203317 6.80888491 -77.6875 32.3125 Z " fill="#07379B" transform="translate(124.6875,-0.3125)"/>
<path d="M0 0 C7.28421548 -0.02312916 14.5684231 -0.04091801 21.85266781 -0.05181217 C25.23471813 -0.05703975 28.6167434 -0.06413511 31.9987793 -0.07543945 C35.88329777 -0.08834267 39.76780597 -0.09322924 43.65234375 -0.09765625 C44.87211411 -0.10281754 46.09188446 -0.10797882 47.34861755 -0.11329651 C49.03024742 -0.11340981 49.03024742 -0.11340981 50.74584961 -0.11352539 C51.73846298 -0.115746 52.73107635 -0.11796661 53.75376892 -0.12025452 C56 0 56 0 57 1 C57.10886895 2.54902869 57.14904292 4.10295904 57.16113281 5.65576172 C57.17074036 6.64704071 57.1803479 7.6383197 57.19024658 8.65963745 C57.19449646 9.73875397 57.19874634 10.81787048 57.203125 11.9296875 C57.20882507 13.03095978 57.21452515 14.13223206 57.22039795 15.26687622 C57.22986477 17.60222406 57.23638857 19.93758536 57.24023438 22.27294922 C57.24993975 25.85277534 57.28094784 29.43202755 57.3125 33.01171875 C57.31902963 35.27603824 57.32428026 37.54036186 57.328125 39.8046875 C57.3404718 40.87975555 57.3528186 41.95482361 57.36553955 43.06246948 C57.36253845 44.0600528 57.35953735 45.05763611 57.35644531 46.08544922 C57.36191376 47.4032991 57.36191376 47.4032991 57.36749268 48.74777222 C56.92400885 51.46572187 56.20139602 52.38698379 54 54 C51.67511119 53.7181953 50.09107165 53.04553582 48 52 C48 51.34 48 50.68 48 50 C47.43267151 49.75667938 46.86534302 49.51335876 46.28082275 49.26266479 C43.56959462 47.76172733 41.70981698 45.97861137 39.50683594 43.79736328 C38.62622498 42.92951202 37.74561401 42.06166077 36.83831787 41.16751099 C35.88659989 40.21884964 34.93529533 39.26977339 33.984375 38.3203125 C33.0037481 37.3461146 32.02297196 36.3720669 31.04205322 35.39816284 C28.99093309 33.35899944 26.94397078 31.31576259 24.89941406 29.27001953 C22.27766228 26.64806401 19.64239479 24.0401628 17.00341415 21.43556404 C14.97544607 19.42981216 12.9566123 17.41505703 10.94025421 15.39764023 C9.9722099 14.43195737 9.00091762 13.46951915 8.02635956 12.51041031 C6.66665465 11.17026663 5.32076925 9.81614508 3.97558594 8.46142578 C3.20599548 7.69468536 2.43640503 6.92794495 1.64349365 6.13796997 C0 4 0 4 0 0 Z " fill="#FAFBFD" transform="translate(55,117)"/>
<path d="M0 0 C2 2 2 2 2.24723816 4.13197327 C2.24581314 5.01276047 2.24438812 5.89354767 2.24291992 6.80102539 C2.24753487 8.29751366 2.24753487 8.29751366 2.25224304 9.82423401 C2.24505753 10.90446335 2.23787201 11.98469269 2.23046875 13.09765625 C2.23001053 14.20225693 2.22955231 15.3068576 2.2290802 16.44493103 C2.22605547 18.78271558 2.21816264 21.12049808 2.20581055 23.45825195 C2.18755834 27.05101603 2.18530078 30.64352254 2.18554688 34.23632812 C2.18063174 36.50260641 2.17480344 38.76888294 2.16796875 41.03515625 C2.16685593 42.11740982 2.1657431 43.19966339 2.16459656 44.31471252 C2.15821671 45.30921921 2.15183685 46.30372589 2.14526367 47.32836914 C2.13954597 48.64835655 2.13954597 48.64835655 2.13371277 49.99501038 C2 52 2 52 1 53 C-0.7492872 53.09365006 -2.50236254 53.11744438 -4.25415039 53.11352539 C-5.37523697 53.11344986 -6.49632355 53.11337433 -7.65138245 53.11329651 C-9.48103798 53.10555458 -9.48103798 53.10555458 -11.34765625 53.09765625 C-12.58921982 53.0962413 -13.83078339 53.09482635 -15.10997009 53.09336853 C-18.41605491 53.08870591 -21.72207146 53.07971497 -25.02813721 53.06866455 C-28.3996115 53.05844827 -31.77109283 53.05387045 -35.14257812 53.04882812 C-41.76173775 53.03777395 -48.38086493 53.02101736 -55 53 C-54.51168292 48.48018727 -53.01194802 46.51812146 -49.8190918 43.34912109 C-48.93114426 42.45824799 -48.04319672 41.56737488 -47.12834167 40.64950562 C-46.15224888 39.69052962 -45.17586746 38.73184733 -44.19921875 37.7734375 C-43.20051818 36.77966398 -42.2026304 35.78507303 -41.20552063 34.78970337 C-39.1157144 32.70752947 -37.01962898 30.63197875 -34.91821289 28.56152344 C-32.22974628 25.91260506 -29.55213627 23.25305373 -26.87852764 20.58914757 C-24.3222617 18.04287715 -21.7610893 15.50156708 -19.19921875 12.9609375 C-18.71311316 12.47822765 -18.22700756 11.99551781 -17.72617149 11.49818039 C-16.34314513 10.1267888 -14.95619696 8.75935576 -13.5690918 7.39208984 C-12.78157028 6.61441254 -11.99404877 5.83673523 -11.18266296 5.03549194 C-5.0680318 -0.66684629 -5.0680318 -0.66684629 0 0 Z " fill="#FAFBFD" transform="translate(110,59)"/>
<path d="M0 0 C2.26171875 0.84375 2.26171875 0.84375 3.26171875 1.84375 C3.36026297 3.4343831 3.38970569 5.02936477 3.39111328 6.62304688 C3.39426544 7.640802 3.3974176 8.65855713 3.40066528 9.70715332 C3.39864105 10.81441772 3.39661682 11.92168213 3.39453125 13.0625 C3.39548798 14.19071167 3.3964447 15.31892334 3.39743042 16.48132324 C3.39811243 18.87215226 3.39625672 21.26298311 3.39208984 23.65380859 C3.38674191 27.32784151 3.39203418 31.00175217 3.3984375 34.67578125 C3.39777672 36.99218777 3.39649557 39.30859422 3.39453125 41.625 C3.39655548 42.7322644 3.39857971 43.83952881 3.40066528 44.98034668 C3.39593704 46.50697937 3.39593704 46.50697937 3.39111328 48.06445312 C3.39031769 48.96522583 3.38952209 49.86599854 3.38870239 50.79406738 C3.26171875 52.84375 3.26171875 52.84375 2.26171875 53.84375 C0.54306466 53.9373419 -1.17943869 53.96119611 -2.90063477 53.95727539 C-4.00170059 53.95719986 -5.10276642 53.95712433 -6.23719788 53.95704651 C-7.43509445 53.95188522 -8.63299103 53.94672394 -9.8671875 53.94140625 C-11.08655502 53.9399913 -12.30592255 53.93857635 -13.5622406 53.93711853 C-17.47511195 53.93149967 -21.38792706 53.91894396 -25.30078125 53.90625 C-27.94596272 53.90123743 -30.59114508 53.8966741 -33.23632812 53.89257812 C-39.73699851 53.88152411 -46.23763586 53.86476764 -52.73828125 53.84375 C-53.4125824 52.05451965 -53.4125824 52.05451965 -53.73828125 49.84375 C-52.65956116 48.1570282 -52.65956116 48.1570282 -50.94946289 46.47143555 C-49.99705467 45.51475227 -49.99705467 45.51475227 -49.02540588 44.53874207 C-48.32350632 43.85951187 -47.62160675 43.18028168 -46.8984375 42.48046875 C-45.82607094 41.41515678 -45.82607094 41.41515678 -44.73204041 40.32832336 C-42.43304255 38.05072607 -40.11703941 35.7912778 -37.80078125 33.53125 C-36.27300252 32.0199773 -34.74629637 30.50761949 -33.22070312 28.99414062 C-27.1088341 22.95531508 -21.00775797 16.9765221 -14.47854614 11.38594055 C-11.10997317 8.40077351 -8.16017474 5.0131968 -5.1328125 1.6875 C-2.73828125 -0.15625 -2.73828125 -0.15625 0 0 Z " fill="#FCFCFD" transform="translate(169.73828125,116.15625)"/>
<path d="M0 0 C7.81452752 -0.02526563 15.62904458 -0.04283105 23.44360352 -0.05493164 C26.10441481 -0.05997383 28.76522332 -0.06680736 31.42602539 -0.07543945 C35.24105516 -0.08751009 39.05604844 -0.09322929 42.87109375 -0.09765625 C44.66793861 -0.10539818 44.66793861 -0.10539818 46.50108337 -0.11329651 C48.15268211 -0.11340981 48.15268211 -0.11340981 49.83764648 -0.11352539 C50.81249496 -0.115746 51.78734344 -0.11796661 52.79173279 -0.12025452 C55 0 55 0 56 1 C56.10374958 2.58515578 56.13851889 4.17489466 56.14526367 5.76342773 C56.15164352 6.77795517 56.15802338 7.7924826 56.16459656 8.8377533 C56.16570938 9.94188065 56.1668222 11.046008 56.16796875 12.18359375 C56.17296135 13.87235374 56.17296135 13.87235374 56.17805481 15.5952301 C56.18312894 17.98185821 56.18546299 20.36849345 56.18530273 22.75512695 C56.18748851 26.41824974 56.2056374 30.08107122 56.22460938 33.74414062 C56.22754326 36.05729063 56.22952809 38.37044208 56.23046875 40.68359375 C56.23765427 41.78569687 56.24483978 42.88779999 56.25224304 44.02330017 C56.24916641 45.04097977 56.24608978 46.05865936 56.24291992 47.10717773 C56.24434494 48.00572983 56.24576996 48.90428192 56.24723816 49.83006287 C56 52 56 52 54 54 C49.84337676 53.73474714 47.90530939 52.38252617 45.07421875 49.4296875 C44.35943359 48.6975 43.64464844 47.9653125 42.90820312 47.2109375 C41.80895508 46.05464844 41.80895508 46.05464844 40.6875 44.875 C34.67236434 38.6061235 34.67236434 38.6061235 28.2734375 32.73828125 C22.83767979 28.07119621 17.75124328 23.04726854 12.66040039 18.01049805 C11.50092868 16.86778503 10.33609371 15.73049124 9.16625977 14.59838867 C7.46198786 12.94855122 5.77446083 11.28315381 4.08984375 9.61328125 C3.56293442 9.10904129 3.03602509 8.60480133 2.4931488 8.08528137 C1.05444336 6.63793945 1.05444336 6.63793945 -1 4 C-0.62840271 1.83512878 -0.62840271 1.83512878 0 0 Z " fill="#FCFCFD" transform="translate(117,59)"/>
<path d="M0 0 C3.76445391 0.47580458 6.41766154 0.55455612 10.0625 -0.375 C13.89510059 2.49945045 15.89565925 6.44609283 18.0625 10.625 C18.0625 11.285 18.0625 11.945 18.0625 12.625 C17.299375 12.74875 16.53625 12.8725 15.75 13 C12.85982864 13.50602792 12.85982864 13.50602792 10.0625 15.625 C6.32007582 15.96522038 3.9338789 16.11654707 0.625 14.25 C-0.9375 12.625 -0.9375 12.625 -0.9375 10.625 C0.0525 10.625 1.0425 10.625 2.0625 10.625 C1.7325 9.635 1.4025 8.645 1.0625 7.625 C-0.95258358 6.89176204 -0.95258358 6.89176204 -2.9375 6.625 C-1.6175 5.635 -0.2975 4.645 1.0625 3.625 C-1.2475 2.965 -3.5575 2.305 -5.9375 1.625 C-4.5399064 5.99619701 -3.13380032 10.3107869 -1.25 14.5 C0.0625 17.625 0.0625 17.625 0.0625 20.625 C-0.9275 20.295 -1.9175 19.965 -2.9375 19.625 C-3.88671875 17.33984375 -3.88671875 17.33984375 -4.625 14.5625 C-5.00205078 13.18384766 -5.00205078 13.18384766 -5.38671875 11.77734375 C-5.56847656 11.06707031 -5.75023437 10.35679687 -5.9375 9.625 C-6.5975 9.625 -7.2575 9.625 -7.9375 9.625 C-9.27845343 3.16404257 -9.27845343 3.16404257 -7.828125 0.87109375 C-5.08087091 -0.93959644 -3.21644676 -0.42143802 0 0 Z " fill="#264AA4" transform="translate(166.9375,211.375)"/>
<path d="M0 0 C6 0 12 0 18 0 C18.33 1.32 18.66 2.64 19 4 C18.01 4 17.02 4 16 4 C16 3.34 16 2.68 16 2 C15.01 2 14.02 2 13 2 C13 2.99 13 3.98 13 5 C13.804375 5.309375 14.60875 5.61875 15.4375 5.9375 C18 7 18 7 19 8 C19.1875 10.9375 19.1875 10.9375 19 14 C18.34 14.66 17.68 15.32 17 16 C13.875 15.625 13.875 15.625 11 15 C11 14.34 11 13.68 11 13 C10.34 13 9.68 13 9 13 C9 13.66 9 14.32 9 15 C6.03 15 3.06 15 0 15 C0 10.05 0 5.1 0 0 Z " fill="#113D9E" transform="translate(79,176)"/>
<path d="M0 0 C2.55949546 1.85342775 2.97918798 2.93756393 4 6 C4.16906842 7.99556172 4.26588089 9.99783184 4.3125 12 C4.34988281 13.051875 4.38726562 14.10375 4.42578125 15.1875 C4 18 4 18 2.140625 19.8515625 C-0.50551585 21.27120741 -2.03767392 21.45574247 -5 21 C-7.77029362 19.02121885 -8.36358793 17.25592963 -9 14 C-9.13968112 12.14922512 -9.21970137 10.29329106 -9.25 8.4375 C-9.27578125 7.48746094 -9.3015625 6.53742187 -9.328125 5.55859375 C-9 3 -9 3 -7.671875 1.18359375 C-5.07676722 -0.65359704 -3.08402393 -0.38550299 0 0 Z " fill="#0C389B" transform="translate(115,9)"/>
<path d="M0 0 C6.25 1.25 6.25 1.25 8 3 C8.27314815 8.73611111 8.27314815 8.73611111 8 11 C5.15035053 13.84964947 3.09507176 13.33373106 -0.875 13.375 C-2.10992187 13.40335938 -3.34484375 13.43171875 -4.6171875 13.4609375 C-8 13 -8 13 -10.41796875 11.16796875 C-12.54375759 8.25485071 -12.5253742 6.52751246 -12 3 C-8.78482994 -1.24044101 -4.89169545 -0.48593001 0 0 Z " fill="#0B369A" transform="translate(21,108)"/>
<path d="M0 0 C2.96910312 0.75953801 4.1094701 1.05745016 5.6875 3.6875 C6.3125 6.375 6.3125 6.375 5.6875 9.6875 C2.87378696 13.71673708 -0.22462117 16.96224745 -4.3125 19.6875 C-7.41667382 19.53229131 -8.86677198 19.08865522 -11.1875 17 C-12.3125 14.6875 -12.3125 14.6875 -12.5 11.9375 C-10.39691616 6.1816916 -6.11587027 1.26933157 0 0 Z " fill="#103A9C" transform="translate(202.3125,39.3125)"/>
<path d="M0 0 C1.20272819 2.40545638 1.10071472 3.94996953 1.0625 6.625 C1.05347656 7.44226563 1.04445312 8.25953125 1.03515625 9.1015625 C1.02355469 9.72804688 1.01195312 10.35453125 1 11 C-4.28419941 14.42758881 -9.85054009 15.02490999 -16 14 C-18.56616632 10.15075052 -18.55097676 7.5650696 -19 3 C-16.77228658 2.49356447 -14.54275924 1.9951038 -12.3125 1.5 C-10.45044922 1.08234375 -10.45044922 1.08234375 -8.55078125 0.65625 C-5.57601782 0.10645874 -3.00631398 -0.13795705 0 0 Z " fill="#113C9D" transform="translate(238,99)"/>
<path d="M0 0 C6.41484836 0.66590121 12.21938188 2.17392003 18 5 C18 5.99 18 6.98 18 8 C16.95199219 7.7834375 16.95199219 7.7834375 15.8828125 7.5625 C14.51769531 7.2840625 14.51769531 7.2840625 13.125 7 C12.22007813 6.814375 11.31515625 6.62875 10.3828125 6.4375 C8.07592097 5.93980405 8.07592097 5.93980405 6 6 C9.63 7.98 13.26 9.96 17 12 C16.67 12.66 16.34 13.32 16 14 C11.71 14 7.42 14 3 14 C8.94 15.485 8.94 15.485 15 17 C14.67 18.32 14.34 19.64 14 21 C11.93636888 20.54678672 9.87413493 20.08720894 7.8125 19.625 C6.08966797 19.24214844 6.08966797 19.24214844 4.33203125 18.8515625 C1.41192652 18.10527548 -1.23953389 17.19568212 -4 16 C-3.67 14.02 -3.34 12.04 -3 10 C0.3 10 3.6 10 7 10 C4.36 8.68 1.72 7.36 -1 6 C-1.042721 4.33388095 -1.04063832 2.66617115 -1 1 C-0.67 0.67 -0.34 0.34 0 0 Z " fill="#0E389C" transform="translate(16,85)"/>
<path d="M0 0 C2 2 2 2 2.125 5.125 C2.08375 6.07375 2.0425 7.0225 2 8 C2.598125 8.04125 3.19625 8.0825 3.8125 8.125 C6 9 6 9 7.75 12.0625 C8.1625 13.031875 8.575 14.00125 9 15 C7.68 15.33 6.36 15.66 5 16 C4.01 14.68 3.02 13.36 2 12 C0.68 12.33 -0.64 12.66 -2 13 C-1.2265625 14.1446875 -1.2265625 14.1446875 -0.4375 15.3125 C0.036875 16.199375 0.51125 17.08625 1 18 C0.67 18.99 0.34 19.98 0 21 C-4.15872775 19.61375742 -5.21825071 16.76037998 -7.25 13.125 C-7.62640625 12.48691406 -8.0028125 11.84882812 -8.390625 11.19140625 C-9.34698237 9.5072328 -10.18210099 7.75559131 -11 6 C-10 3 -10 3 -7.75 1.3125 C-4.82638316 -0.08286258 -3.18920096 -0.4309731 0 0 Z " fill="#123D9E" transform="translate(74,23)"/>
<path d="M0 0 C-0.08566397 2.912575 -0.57910955 4.56798024 -2.625 6.66796875 C-4.38391375 8.16091772 -6.16313019 9.60436262 -8 11 C-7.45730469 10.7834375 -6.91460937 10.566875 -6.35546875 10.34375 C-5.64003906 10.0653125 -4.92460937 9.786875 -4.1875 9.5 C-3.47980469 9.2215625 -2.77210938 8.943125 -2.04296875 8.65625 C0 8 0 8 3 8 C3 9.32 3 10.64 3 12 C-5.91 14.97 -5.91 14.97 -15 18 C-15.33 16.68 -15.66 15.36 -16 14 C-13.03 11.36 -10.06 8.72 -7 6 C-8.2375 6.515625 -9.475 7.03125 -10.75 7.5625 C-13.9493138 8.89554742 -15.69564916 9.12377697 -19 8 C-19 7.34 -19 6.68 -19 6 C-16.39802798 4.99394407 -13.79370638 3.99497475 -11.1875 3 C-10.08051758 2.57074219 -10.08051758 2.57074219 -8.95117188 2.1328125 C-8.23896484 1.86210938 -7.52675781 1.59140625 -6.79296875 1.3125 C-6.1383667 1.06113281 -5.48376465 0.80976562 -4.80932617 0.55078125 C-3 0 -3 0 0 0 Z " fill="#123C9D" transform="translate(233,81)"/>
<path d="M0 0 C5.61 0 11.22 0 17 0 C17 0.99 17 1.98 17 3 C19.97 3 22.94 3 26 3 C26 3.99 26 4.98 26 6 C23.69 6 21.38 6 19 6 C19 6.66 19 7.32 19 8 C18.34 8 17.68 8 17 8 C17 7.34 17 6.68 17 6 C14.36 6.33 11.72 6.66 9 7 C8.34 9.64 7.68 12.28 7 15 C6.01 15 5.02 15 4 15 C4 14.01 4 13.02 4 12 C3.195625 11.855625 2.39125 11.71125 1.5625 11.5625 C-1 11 -1 11 -2 10 C-2.1875 7.5625 -2.1875 7.5625 -2 5 C-1.34 4.34 -0.68 3.68 0 3 C1.32 3 2.64 3 4 3 C4 3.66 4 4.32 4 5 C3.01 5 2.02 5 1 5 C1 6.65 1 8.3 1 10 C1.99 9.67 2.98 9.34 4 9 C5.22969878 5.48809191 5.22969878 5.48809191 6 2 C4.02 2 2.04 2 0 2 C0 1.34 0 0.68 0 0 Z " fill="#DEE4F1" transform="translate(106,224)"/>
<path d="M0 0 C17.49 0 34.98 0 53 0 C53 0.99 53 1.98 53 3 C35.51 3 18.02 3 0 3 C0 2.01 0 1.02 0 0 Z " fill="#002B95" transform="translate(57,113)"/>
<path d="M0 0 C2.60607392 0.61778047 5.20965697 1.24387211 7.8125 1.875 C8.55048828 2.04902344 9.28847656 2.22304687 10.04882812 2.40234375 C13.49717037 3.24492511 16.01928362 4.01285575 19 6 C19.1875 8.625 19.1875 8.625 19 11 C16.79248152 11.33868777 14.58394089 11.67071689 12.375 12 C11.14523438 12.185625 9.91546875 12.37125 8.6484375 12.5625 C5.3833973 12.95402516 2.28287549 13.08080924 -1 13 C-1 12.01 -1 11.02 -1 10 C0.65 9.67 2.3 9.34 4 9 C4 7.68 4 6.36 4 5 C2.68 4.67 1.36 4.34 0 4 C0 2.68 0 1.36 0 0 Z " fill="#153F9F" transform="translate(222,124)"/>
<path d="M0 0 C2.6875 0.3125 2.6875 0.3125 5.0625 1.875 C6.6875 4.3125 6.6875 4.3125 6.4375 8.0625 C6.19 9.135 5.9425 10.2075 5.6875 11.3125 C6.5125 11.745625 7.3375 12.17875 8.1875 12.625 C9.0125 13.181875 9.8375 13.73875 10.6875 14.3125 C10.6875 15.3025 10.6875 16.2925 10.6875 17.3125 C6.18022353 16.70983215 2.8287037 14.94650206 -1.125 12.75 C-1.72248047 12.42064453 -2.31996094 12.09128906 -2.93554688 11.75195312 C-4.39783998 10.94476733 -5.8556399 10.12945083 -7.3125 9.3125 C-6.6691152 7.998798 -6.02271785 6.68657102 -5.375 5.375 C-5.01535156 4.64410156 -4.65570312 3.91320312 -4.28515625 3.16015625 C-2.82234252 0.38139764 -2.82234252 0.38139764 0 0 Z " fill="#0E399C" transform="translate(26.3125,68.6875)"/>
<path d="M0 0 C4.10110762 1.40398279 6.98089159 3.37087038 10.3125 6.125 C11.19550781 6.84945312 12.07851563 7.57390625 12.98828125 8.3203125 C13.98408203 9.15175781 13.98408203 9.15175781 15 10 C14.140625 15.7578125 14.140625 15.7578125 12.875 17.9375 C10.53130468 19.26559402 8.75274329 19.33445373 6.1171875 18.859375 C1.45235704 16.96590138 -2.26420274 13.29982897 -6 10 C-5.67 9.01 -5.34 8.02 -5 7 C-0.99260849 8.33579717 1.95966543 10.31502829 5.25390625 12.87890625 C7.15673796 14.10063489 8.79277175 14.57014592 11 15 C10.71855013 11.79580145 9.99711793 10.99753608 7.49609375 8.859375 C6.48675781 8.16328125 5.47742188 7.4671875 4.4375 6.75 C3.42558594 6.04359375 2.41367187 5.3371875 1.37109375 4.609375 C0.58863281 4.07828125 -0.19382812 3.5471875 -1 3 C-0.67 2.01 -0.34 1.02 0 0 Z " fill="#16409F" transform="translate(34,53)"/>
<path d="M0 0 C2 2 2 2 2 5 C-0.38564077 4.42415568 -2.66682784 3.77772405 -5 3 C-4.34324028 6.05697699 -4.34324028 6.05697699 -2.22265625 7.0625 C-1.50980469 7.371875 -0.79695313 7.68125 -0.0625 8 C3.20616298 9.42373705 3.91624972 9.87437458 6 13 C5.77490429 15.40102095 5.16380988 16.75859597 3.8125 18.75 C1.13307088 20.59788215 -0.83221897 20.40439758 -4 20 C-6 17 -6 17 -5.625 14.8125 C-5.41875 14.214375 -5.2125 13.61625 -5 13 C-4.34 13 -3.68 13 -3 13 C-2.67 14.32 -2.34 15.64 -2 17 C-1.01 16.67 -0.02 16.34 1 16 C1 15.01 1 14.02 1 13 C-0.6396875 12.3503125 -0.6396875 12.3503125 -2.3125 11.6875 C-7.59330289 9.37380137 -7.59330289 9.37380137 -9 7 C-8.8125 3.875 -8.8125 3.875 -8 1 C-5.23749964 -0.38125018 -3.05268901 -0.19079306 0 0 Z " fill="#123C9D" transform="translate(98,13)"/>
<path d="M0 0 C6.0546875 -0.1953125 6.0546875 -0.1953125 8 0 C10 2 10 2 10.265625 4.27734375 C10.26046875 5.15519531 10.2553125 6.03304687 10.25 6.9375 C10.25515625 7.81277344 10.2603125 8.68804687 10.265625 9.58984375 C10 12 10 12 8 15 C6.0546875 15.29296875 6.0546875 15.29296875 3.875 15.1875 C1.956875 15.0946875 1.956875 15.0946875 0 15 C0 10.05 0 5.1 0 0 Z " fill="#E4E9F4" transform="translate(111,176)"/>
<path d="M0 0 C3.4375 0.375 3.4375 0.375 5.4375 2.375 C5.4375 3.695 5.4375 5.015 5.4375 6.375 C4.1175 6.375 2.7975 6.375 1.4375 6.375 C1.4375 5.385 1.4375 4.395 1.4375 3.375 C0.4475 3.705 -0.5425 4.035 -1.5625 4.375 C-1.5625 8.335 -1.5625 12.295 -1.5625 16.375 C-0.5725 16.705 0.4175 17.035 1.4375 17.375 C1.4375 16.055 1.4375 14.735 1.4375 13.375 C2.7575 13.375 4.0775 13.375 5.4375 13.375 C4.5625 19.25 4.5625 19.25 3.4375 20.375 C-2.84999854 20.84074063 -2.84999854 20.84074063 -5.265625 19.26171875 C-7.16910805 16.49249492 -6.96014948 14.26319839 -6.9375 10.9375 C-6.94523437 9.80441406 -6.95296875 8.67132813 -6.9609375 7.50390625 C-6.31794617 2.45453314 -5.13985761 0.54103764 0 0 Z " fill="#2249A4" transform="translate(129.5625,8.625)"/>
<path d="M0 0 C5.08938811 1.59043379 8.87456643 4.7446951 13 8 C12.65986985 13.44208234 9.29703472 16.93668198 6 21 C5.34 20.34 4.68 19.68 4 19 C4.99 17.02 5.98 15.04 7 13 C6.34 13 5.68 13 5 13 C5 12.34 5 11.68 5 11 C4.01 11 3.02 11 2 11 C2 12.65 2 14.3 2 16 C1.34 16 0.68 16 0 16 C0 12.37 0 8.74 0 5 C0.66 5 1.32 5 2 5 C2 5.99 2 6.98 2 8 C2.99 7.01 3.98 6.02 5 5 C3.7625 4.319375 3.7625 4.319375 2.5 3.625 C1.675 3.08875 0.85 2.5525 0 2 C0 1.34 0 0.68 0 0 Z " fill="#1A40A0" transform="translate(59,202)"/>
<path d="M0 0 C0.66 0.33 1.32 0.66 2 1 C2 1.66 2 2.32 2 3 C1.01 3.66 0.02 4.32 -1 5 C-1 5.99 -1 6.98 -1 8 C1.38564077 7.42415568 3.66682784 6.77772405 6 6 C5.33333333 8.66666667 4.66666667 11.33333333 4 14 C7.62326739 15.2077558 8.64146369 14.54311128 12 13 C11.66354211 16.14027363 10.94763914 17.05098295 8.625 19.3125 C7.75875 19.869375 6.8925 20.42625 6 21 C1.94543692 19.64847897 0.25154664 16.90386339 -2.25 13.625 C-2.72179688 13.03460938 -3.19359375 12.44421875 -3.6796875 11.8359375 C-5.015625 10.1015625 -5.015625 10.1015625 -7 7 C-5.66667905 3.00003714 -3.5042173 2.16217663 0 0 Z " fill="#153E9F" transform="translate(57,31)"/>
<path d="M0 0 C3.3 0.66 6.6 1.32 10 2 C10 2.99 10 3.98 10 5 C7.36 4.67 4.72 4.34 2 4 C2.19471111 5.94999129 2.19471111 5.94999129 3 8 C4.9837767 9.28436734 4.9837767 9.28436734 7 10 C7 10.66 7 11.32 7 12 C4.69 11.67 2.38 11.34 0 11 C-0.33 12.98 -0.66 14.96 -1 17 C0.98 17.33 2.96 17.66 5 18 C5 18.99 5 19.98 5 21 C1.7 20.34 -1.6 19.68 -5 19 C-3.64583062 12.54165371 -1.95326547 6.30372038 0 0 Z " fill="#09369A" transform="translate(150,12)"/>
<path d="M0 0 C1.32 0 2.64 0 4 0 C4 1.32 4 2.64 4 4 C3.01 4 2.02 4 1 4 C1.33 4.99 1.66 5.98 2 7 C5.63 7 9.26 7 13 7 C13.66 5.68 14.32 4.36 15 3 C13.68 3 12.36 3 11 3 C11 2.01 11 1.02 11 0 C13.375 -0.125 13.375 -0.125 16 0 C18 2 18 2 18.3125 4.9375 C18 8 18 8 16.953125 9.671875 C13.96638389 11.70285896 10.91725417 11.39480261 7.4375 11.3125 C6.75236328 11.31572266 6.06722656 11.31894531 5.36132812 11.32226562 C0.26727586 11.26727586 0.26727586 11.26727586 -2 9 C-2.25 5.5 -2.25 5.5 -2 2 C-1.34 1.34 -0.68 0.68 0 0 Z " fill="#0B379B" transform="translate(11,126)"/>
<path d="M0 0 C0.99 0 1.98 0 3 0 C3.83848804 1.45537568 4.67063934 2.91440373 5.5 4.375 C6.19609375 5.59316406 6.19609375 5.59316406 6.90625 6.8359375 C8 9 8 9 8 11 C7.236875 11.12375 6.47375 11.2475 5.6875 11.375 C2.79732864 11.88102792 2.79732864 11.88102792 0 14 C-3.74242418 14.34022038 -6.1286211 14.49154707 -9.4375 12.625 C-11 11 -11 11 -11 9 C-10.01 9 -9.02 9 -8 9 C-8.33 8.01 -8.66 7.02 -9 6 C-11.01508358 5.26676204 -11.01508358 5.26676204 -13 5 C-12.34 4.34 -11.68 3.68 -11 3 C-9.68 3 -8.36 3 -7 3 C-4.8480563 6.22791555 -4.79913557 7.28400809 -5 11 C-2.12586875 11.33397787 -2.12586875 11.33397787 1 11 C2.91256712 9.11922127 2.91256712 9.11922127 4 7 C3.01 7.66 2.02 8.32 1 9 C-1.1875 8.625 -1.1875 8.625 -3 8 C-3.33 6.68 -3.66 5.36 -4 4 C-2.68 3.34 -1.36 2.68 0 2 C-0.33 3.32 -0.66 4.64 -1 6 C-0.01 6 0.98 6 2 6 C1.34 4.02 0.68 2.04 0 0 Z " fill="#274CA5" transform="translate(177,213)"/>
<path d="M0 0 C4.29 0 8.58 0 13 0 C12.67 4.95 12.34 9.9 12 15 C11.01 15 10.02 15 9 15 C9 12.03 9 9.06 9 6 C7.02 6 5.04 6 3 6 C3.309375 6.7425 3.61875 7.485 3.9375 8.25 C4.8094925 10.50692176 5.47667007 12.6450153 6 15 C2.21874975 13.73958325 1.98677673 12.31129455 0 9 C-0.99 8.67 -1.98 8.34 -3 8 C-3.33 8.66 -3.66 9.32 -4 10 C-4.66 9.34 -5.32 8.68 -6 8 C-6 7.01 -6 6.02 -6 5 C-4.02 5 -2.04 5 0 5 C0 5.66 0 6.32 0 7 C0.66 7 1.32 7 2 7 C2 6.34 2 5.68 2 5 C4.31 5 6.62 5 9 5 C9 4.01 9 3.02 9 2 C6.03 2 3.06 2 0 2 C0 1.34 0 0.68 0 0 Z " fill="#4063B1" transform="translate(123,225)"/>
<path d="M0 0 C0.69670416 1.78810766 1.38211189 3.58062052 2.0625 5.375 C2.44535156 6.37273437 2.82820313 7.37046875 3.22265625 8.3984375 C4 11 4 11 3 13 C2.34 13 1.68 13 1 13 C0.67 11.35 0.34 9.7 0 8 C-0.99 8.33 -1.98 8.66 -3 9 C-3.33 8.34 -3.66 7.68 -4 7 C-3.01 7 -2.02 7 -1 7 C-1.33 6.01 -1.66 5.02 -2 4 C-4.01508358 3.26676204 -4.01508358 3.26676204 -6 3 C-5.50263981 8.74519583 -5.50263981 8.74519583 -2 13 C-2 13.99 -2 14.98 -2 16 C-5.94139078 14.33248852 -8.7892812 11.77289351 -12 9 C-11.34 8.34 -10.68 7.68 -10 7 C-9.01 7.66 -8.02 8.32 -7 9 C-7.33 7.68 -7.66 6.36 -8 5 C-10.31 5.33 -12.62 5.66 -15 6 C-15 5.34 -15 4.68 -15 4 C-13.06441401 3.32779649 -11.12645628 2.66241923 -9.1875 2 C-8.10855469 1.62875 -7.02960938 1.2575 -5.91796875 0.875 C-3 0 -3 0 0 0 Z " fill="#2046A3" transform="translate(157,220)"/>
<path d="M0 0 C2.5 0.25 2.5 0.25 4.5 2.25 C4.765625 4.78125 4.765625 4.78125 4.75 7.75 C4.75515625 8.7296875 4.7603125 9.709375 4.765625 10.71875 C4.5 13.25 4.5 13.25 2.5 15.25 C-0.125 15.375 -0.125 15.375 -2.5 15.25 C-2.83 14.26 -3.16 13.27 -3.5 12.25 C-1.85 12.58 -0.2 12.91 1.5 13.25 C1.5 12.26 1.5 11.27 1.5 10.25 C0.695625 10.105625 -0.10875 9.96125 -0.9375 9.8125 C-3.5 9.25 -3.5 9.25 -4.5 8.25 C-4.6875 5.3125 -4.6875 5.3125 -4.5 2.25 C-2.5 0.25 -2.5 0.25 0 0 Z " fill="#D2DBED" transform="translate(149.5,175.75)"/>
<path d="M0 0 C3.71162994 1.85581497 5.01775064 2.55714584 7 6 C6.67 6.99 6.34 7.98 6 9 C4.68 7.68 3.36 6.36 2 5 C1.01 5.33 0.02 5.66 -1 6 C-0.34 8.31 0.32 10.62 1 13 C0.01 13 -0.98 13 -2 13 C-2.66 12.01 -3.32 11.02 -4 10 C-4.86625 10.433125 -4.86625 10.433125 -5.75 10.875 C-8.875 12.4375 -8.875 12.4375 -12 14 C-12.33 12.68 -12.66 11.36 -13 10 C-8.71 6.7 -4.42 3.4 0 0 Z " fill="#0F399C" transform="translate(213,52)"/>
<path d="M0 0 C1.4540625 0.0309375 1.4540625 0.0309375 2.9375 0.0625 C3.2675 1.0525 3.5975 2.0425 3.9375 3.0625 C2.2875 3.0625 0.6375 3.0625 -1.0625 3.0625 C-1.3925 3.7225 -1.7225 4.3825 -2.0625 5.0625 C-1.258125 5.041875 -0.45375 5.02125 0.375 5 C2.9375 5.0625 2.9375 5.0625 3.9375 6.0625 C4.0703125 7.875 4.0703125 7.875 4.0625 10.0625 C4.06507813 10.784375 4.06765625 11.50625 4.0703125 12.25 C3.9375 14.0625 3.9375 14.0625 2.9375 15.0625 C-0.0625 15.1875 -0.0625 15.1875 -3.0625 15.0625 C-4.0625 14.0625 -4.0625 14.0625 -4.1953125 11.15625 C-4.19273437 9.9703125 -4.19015625 8.784375 -4.1875 7.5625 C-4.19007813 6.3765625 -4.19265625 5.190625 -4.1953125 3.96875 C-4.01769192 0.08199371 -4.01769192 0.08199371 0 0 Z " fill="#F6F8FB" transform="translate(160.0625,175.9375)"/>
<path d="M0 0 C0.99 0.33 1.98 0.66 3 1 C3 3.64 3 6.28 3 9 C3.5775 8.319375 4.155 7.63875 4.75 6.9375 C5.4925 6.298125 6.235 5.65875 7 5 C9.25 5.25 9.25 5.25 11 6 C8.4683447 8.5316553 5.93701106 11.0614892 3.375 13.5625 C0.99737722 15.87330292 0.99737722 15.87330292 -0.625 18.3125 C-1.07875 18.869375 -1.5325 19.42625 -2 20 C-2.99 20 -3.98 20 -5 20 C-4.54895238 17.89511112 -4.0781007 16.14108513 -3.03125 14.25 C-1.74353452 11.44043896 -1.33934104 8.80138396 -0.875 5.75 C-0.62363281 4.13351563 -0.62363281 4.13351563 -0.3671875 2.484375 C-0.24601563 1.66453125 -0.12484375 0.8446875 0 0 Z " fill="#113C9E" transform="translate(178,22)"/>
<path d="M0 0 C0.99 0.33 1.98 0.66 3 1 C2.73316406 1.71542969 2.46632813 2.43085937 2.19140625 3.16796875 C1.67064518 6.19173405 1.67064518 6.19173405 4.08984375 8.67578125 C5.02957031 9.54589844 5.96929687 10.41601562 6.9375 11.3125 C7.87464844 12.19550781 8.81179687 13.07851563 9.77734375 13.98828125 C10.51082031 14.65214844 11.24429688 15.31601562 12 16 C11.01 16.99 10.02 17.98 9 19 C8.34773438 18.26652344 7.69546875 17.53304687 7.0234375 16.77734375 C6.14945313 15.84019531 5.27546875 14.90304688 4.375 13.9375 C3.51648437 12.99777344 2.65796875 12.05804688 1.7734375 11.08984375 C-0.86694322 8.63170211 -0.86694322 8.63170211 -4.3359375 9.19140625 C-5.65464844 9.59166016 -5.65464844 9.59166016 -7 10 C-5.33248852 6.05860922 -2.77289351 3.2107188 0 0 Z " fill="#0D389B" transform="translate(45,40)"/>
<path d="M0 0 C2.31 0 4.62 0 7 0 C7.33 1.32 7.66 2.64 8 4 C7.01 4 6.02 4 5 4 C5 3.34 5 2.68 5 2 C4.01 2 3.02 2 2 2 C2 2.99 2 3.98 2 5 C2.804375 5.309375 3.60875 5.61875 4.4375 5.9375 C7 7 7 7 8 8 C8.1875 10.9375 8.1875 10.9375 8 14 C7.34 14.66 6.68 15.32 6 16 C2.875 15.625 2.875 15.625 0 15 C-0.33 13.35 -0.66 11.7 -1 10 C-0.01 10 0.98 10 2 10 C2 10.99 2 11.98 2 13 C2.99 13 3.98 13 5 13 C3.01231117 9.44282787 3.01231117 9.44282787 0.25 6.5 C-0.1625 6.005 -0.575 5.51 -1 5 C-0.6875 2.3125 -0.6875 2.3125 0 0 Z " fill="#DEE4F1" transform="translate(90,176)"/>
<path d="M0 0 C2.64 0 5.28 0 8 0 C8 0.66 8 1.32 8 2 C7.01 2.33 6.02 2.66 5 3 C6.41601714 3.48108275 7.83284437 3.95978141 9.25 4.4375 C10.03890625 4.70433594 10.8278125 4.97117187 11.640625 5.24609375 C13.74821988 5.91954708 15.84753973 6.49150595 18 7 C17.67 8.32 17.34 9.64 17 11 C14.93636888 10.54678672 12.87413493 10.08720894 10.8125 9.625 C9.66394531 9.36976562 8.51539063 9.11453125 7.33203125 8.8515625 C4.41192652 8.10527548 1.76046611 7.19568212 -1 6 C-0.67 4.02 -0.34 2.04 0 0 Z " fill="#1841A0" transform="translate(13,95)"/>
<path d="M0 0 C4.12751449 0.60698743 7.3321148 2.03810791 11 4 C11 4.66 11 5.32 11 6 C9.35 5.67 7.7 5.34 6 5 C5.87753906 5.71542969 5.75507813 6.43085938 5.62890625 7.16796875 C4.98864625 10.05112713 4.06448444 12.58592473 2.9375 15.3125 C2.57527344 16.19550781 2.21304688 17.07851563 1.83984375 17.98828125 C1.42412109 18.98408203 1.42412109 18.98408203 1 20 C0.01 20 -0.98 20 -2 20 C-1.46246904 13.81839396 0.54582388 8.673142 3 3 C2.01 2.67 1.02 2.34 0 2 C0 1.34 0 0.68 0 0 Z " fill="#0E399C" transform="translate(163,16)"/>
<path d="M0 0 C0.061875 0.70125 0.12375 1.4025 0.1875 2.125 C0.99627245 4.98681022 1.6551508 5.96980316 3.5625 8.125 C6 11 6 11 6 14 C2.125 12.25 2.125 12.25 1 10 C0.01 10 -0.98 10 -2 10 C-2 11.32 -2 12.64 -2 14 C-4.97 13.505 -4.97 13.505 -8 13 C-6.77065985 9.31197956 -5.06140622 8.27643027 -2 6 C-5.57575896 6 -7.05295935 7.08840607 -10 9 C-10 8.01 -10 7.02 -10 6 C-8.3203125 4.39453125 -8.3203125 4.39453125 -6.125 2.8125 C-5.04605469 2.01779297 -5.04605469 2.01779297 -3.9453125 1.20703125 C-2 0 -2 0 0 0 Z " fill="#163D9E" transform="translate(190,202)"/>
<path d="M0 0 C2.64 0 5.28 0 8 0 C8.18451025 10.55808656 8.18451025 10.55808656 7 15 C6.01 15 5.02 15 4 15 C4 14.01 4 13.02 4 12 C3.195625 11.855625 2.39125 11.71125 1.5625 11.5625 C-1 11 -1 11 -2 10 C-2.1875 7.5625 -2.1875 7.5625 -2 5 C-1.34 4.34 -0.68 3.68 0 3 C1.32 3 2.64 3 4 3 C4 3.66 4 4.32 4 5 C3.01 5 2.02 5 1 5 C1 6.65 1 8.3 1 10 C1.99 9.67 2.98 9.34 4 9 C5.22969878 5.48809191 5.22969878 5.48809191 6 2 C4.02 2 2.04 2 0 2 C0 1.34 0 0.68 0 0 Z " fill="#1A41A0" transform="translate(106,224)"/>
<path d="M0 0 C3.66881155 0.70554068 6.70450534 2.27735506 10 4 C10 4.66 10 5.32 10 6 C9 7 8 8 7 9 C5.80400932 11.03232242 5.80400932 11.03232242 4.8125 13.1875 C4.46832031 13.90292969 4.12414062 14.61835938 3.76953125 15.35546875 C3.38861328 16.16951172 3.38861328 16.16951172 3 17 C2.01 16.67 1.02 16.34 0 16 C0.33 15.01 0.66 14.02 1 13 C-0.32 12.34 -1.64 11.68 -3 11 C-3.125 8.625 -3.125 8.625 -3 6 C-2.34 5.34 -1.68 4.68 -1 4 C1.625 4.375 1.625 4.375 4 5 C4 5.66 4 6.32 4 7 C2.68 7 1.36 7 0 7 C0 7.99 0 8.98 0 10 C0.99 10 1.98 10 3 10 C3.99 8.02 4.98 6.04 6 4 C4.02 3.34 2.04 2.68 0 2 C0 1.34 0 0.68 0 0 Z " fill="#1C43A1" transform="translate(74,212)"/>
<path d="M0 0 C1.98 0.495 1.98 0.495 4 1 C4.93423645 4.01031744 5.04449911 4.86650268 4 8 C4.99 7.67 5.98 7.34 7 7 C7 5.35 7 3.7 7 2 C8.5625 3.0625 8.5625 3.0625 10 5 C9.75743709 9.36613235 8.80477442 13.02949628 7 17 C6.34 17 5.68 17 5 17 C5.33 14.69 5.66 12.38 6 10 C4.35 10.66 2.7 11.32 1 12 C-1 9 -1 9 -1 6 C-0.01 6 0.98 6 2 6 C2 4.68 2 3.36 2 2 C1.01 2.33 0.02 2.66 -1 3 C-0.67 2.01 -0.34 1.02 0 0 Z " fill="#1B42A0" transform="translate(93,220)"/>
<path d="M0 0 C2.64 0 5.28 0 8 0 C8 0.66 8 1.32 8 2 C6.02 2 4.04 2 2 2 C2 2.99 2 3.98 2 5 C2.804375 4.979375 3.60875 4.95875 4.4375 4.9375 C7 5 7 5 8 6 C8.27314815 11.73611111 8.27314815 11.73611111 8 14 C7.34 14.66 6.68 15.32 6 16 C3.375 15.625 3.375 15.625 1 15 C0.67 13.68 0.34 12.36 0 11 C2.475 11.99 2.475 11.99 5 13 C5 11.02 5 9.04 5 7 C3.35 7.33 1.7 7.66 0 8 C0 5.36 0 2.72 0 0 Z " fill="#ECEFF7" transform="translate(166,176)"/>
<path d="M0 0 C2.64 0 5.28 0 8 0 C8 0.66 8 1.32 8 2 C6.35 2 4.7 2 3 2 C3 3.32 3 4.64 3 6 C4.65 6 6.3 6 8 6 C8 6.66 8 7.32 8 8 C6.35 8 4.7 8 3 8 C3 9.65 3 11.3 3 13 C4.65 13 6.3 13 8 13 C8 13.66 8 14.32 8 15 C5.36 15 2.72 15 0 15 C0 10.05 0 5.1 0 0 Z " fill="#F7F8FB" transform="translate(79,176)"/>
<path d="M0 0 C1.65322266 0.01740234 1.65322266 0.01740234 3.33984375 0.03515625 C4.99693359 0.04869141 4.99693359 0.04869141 6.6875 0.0625 C7.54214844 0.07410156 8.39679687 0.08570312 9.27734375 0.09765625 C9.93734375 1.41765625 10.59734375 2.73765625 11.27734375 4.09765625 C10.61734375 4.75765625 9.95734375 5.41765625 9.27734375 6.09765625 C6.45703125 6.07421875 6.45703125 6.07421875 3.15234375 5.72265625 C2.05664062 5.61179687 0.9609375 5.5009375 -0.16796875 5.38671875 C-1.43253906 5.24363281 -1.43253906 5.24363281 -2.72265625 5.09765625 C-3.28515625 3.16015625 -3.28515625 3.16015625 -3.72265625 1.09765625 C-2.72265625 0.09765625 -2.72265625 0.09765625 0 0 Z " fill="#E7EBF5" transform="translate(15.72265625,111.90234375)"/>
<path d="M0 0 C0.58265625 0.22945312 1.1653125 0.45890625 1.765625 0.6953125 C1.16503156 3.96601415 0.09180475 5.91138307 -2.046875 8.4453125 C-2.54832031 9.05890625 -3.04976562 9.6725 -3.56640625 10.3046875 C-5.234375 11.6953125 -5.234375 11.6953125 -9.234375 11.6953125 C-9.671875 9.6328125 -9.671875 9.6328125 -9.234375 6.6953125 C-3.91179435 -0.5334265 -3.91179435 -0.5334265 0 0 Z " fill="#E9EDF6" transform="translate(203.234375,43.3046875)"/>
<path d="M0 0 C1.953125 0.6484375 1.953125 0.6484375 4 2 C4.609375 4.6015625 4.609375 4.6015625 4.75 7.625 C4.80671875 8.62789062 4.8634375 9.63078125 4.921875 10.6640625 C4.94765625 11.43492188 4.9734375 12.20578125 5 13 C3.02 13.99 3.02 13.99 1 15 C-1 13 -1 13 -1.23046875 10.21484375 C-1.21628906 9.13332031 -1.20210938 8.05179688 -1.1875 6.9375 C-1.18105469 5.85339844 -1.17460938 4.76929688 -1.16796875 3.65234375 C-1 1 -1 1 0 0 Z " fill="#E9EDF6" transform="translate(111,12)"/>
<path d="M0 0 C0 0.99 0 1.98 0 3 C-3.29960141 4.6498007 -6.99127884 4.38258361 -10.625 4.5625 C-11.42679688 4.60568359 -12.22859375 4.64886719 -13.0546875 4.69335938 C-15.0362511 4.79951457 -17.01810271 4.90026855 -19 5 C-19 3.68 -19 2.36 -19 1 C-12.65758005 -0.15316726 -6.43311296 -0.09507063 0 0 Z " fill="#153F9F" transform="translate(241,117)"/>
<path d="M0 0 C-0.06640625 1.765625 -0.06640625 1.765625 -1 4 C-3.32123545 5.44380258 -5.47524362 6.61282312 -7.9375 7.75 C-8.58396484 8.06582031 -9.23042969 8.38164063 -9.89648438 8.70703125 C-14.67598417 11 -14.67598417 11 -17 11 C-17.33 10.01 -17.66 9.02 -18 8 C-16.41779413 7.03980636 -14.83418669 6.08192202 -13.25 5.125 C-11.92742187 4.32449219 -11.92742187 4.32449219 -10.578125 3.5078125 C-4.58031088 0 -4.58031088 0 0 0 Z " fill="#113B9D" transform="translate(229,73)"/>
<path d="M0 0 C2.75 0.625 2.75 0.625 4.625 1.75 C6.2182099 4.40534983 5.95214032 6.59289518 5.75 9.625 C4.76 10.12 4.76 10.12 3.75 10.625 C3.09 8.645 2.43 6.665 1.75 4.625 C-2.04588866 5.16726981 -3.72211993 6.82627563 -6.25 9.625 C-7.57 8.965 -8.89 8.305 -10.25 7.625 C-4.4059633 0.84730064 -4.4059633 0.84730064 0 0 Z " fill="#0C389B" transform="translate(202.25,39.375)"/>
<path d="M0 0 C0 4.95 0 9.9 0 15 C-1.32 15 -2.64 15 -4 15 C-4 11.7 -4 8.4 -4 5 C-4.99 5 -5.98 5 -7 5 C-7 4.01 -7 3.02 -7 2 C-4.35261084 0.5393715 -3.10551666 0 0 0 Z " fill="#BFCBE5" transform="translate(142,176)"/>
<path d="M0 0 C0.99 0 1.98 0 3 0 C3.24794402 6.5705166 2.32388229 12.56971459 1 19 C-0.32 19 -1.64 19 -3 19 C-2.37679879 12.56025419 -1.35991738 6.32427599 0 0 Z " fill="#143E9E" transform="translate(141,11)"/>
<path d="M0 0 C0 1.65 0 3.3 0 5 C-8.42857143 7.42857143 -8.42857143 7.42857143 -13 6 C-13 4.68 -13 3.36 -13 2 C-11.58461283 1.66127487 -10.16762037 1.32925376 -8.75 1 C-7.56664062 0.7215625 -7.56664062 0.7215625 -6.359375 0.4375 C-4 0 -4 0 0 0 Z " fill="#E9EDF6" transform="translate(236,103)"/>
<path d="M0 0 C1.32 0.66 2.64 1.32 4 2 C3.34 2 2.68 2 2 2 C2 2.66 2 3.32 2 4 C3.98 4.66 5.96 5.32 8 6 C7.25 8.9375 7.25 8.9375 6 12 C3.875 12.875 3.875 12.875 2 13 C1.67 11.68 1.34 10.36 1 9 C1.99 8.67 2.98 8.34 4 8 C4.66 8.33 5.32 8.66 6 9 C5.67 8.34 5.34 7.68 5 7 C2.55519921 7.18828772 2.55519921 7.18828772 0 8 C-1.36020151 9.96758273 -1.36020151 9.96758273 -2 12 C-2.33 11.34 -2.66 10.68 -3 10 C-3.99 10.495 -3.99 10.495 -5 11 C-4.731875 10.484375 -4.46375 9.96875 -4.1875 9.4375 C-2.67650593 6.33598585 -1.34427274 3.17737194 0 0 Z " fill="#E5EAF4" transform="translate(72,210)"/>
<path d="M0 0 C0.66 0 1.32 0 2 0 C2 1.65 2 3.3 2 5 C-0.20751848 5.33868777 -2.41605911 5.67071689 -4.625 6 C-5.85476562 6.185625 -7.08453125 6.37125 -8.3515625 6.5625 C-11.6166027 6.95402516 -14.71712451 7.08080924 -18 7 C-18 6.01 -18 5.02 -18 4 C-16.5459375 4.0309375 -16.5459375 4.0309375 -15.0625 4.0625 C-12.12534105 4.35618499 -12.12534105 4.35618499 -11 3 C-9.31391034 2.92794489 -7.62499341 2.91613932 -5.9375 2.9375 C-5.01839844 2.94652344 -4.09929687 2.95554688 -3.15234375 2.96484375 C-2.44207031 2.97644531 -1.73179687 2.98804688 -1 3 C-0.67 2.01 -0.34 1.02 0 0 Z " fill="#063298" transform="translate(239,130)"/>
<path d="M0 0 C1.21236328 0.04060547 1.21236328 0.04060547 2.44921875 0.08203125 C3.06410156 0.11683594 3.67898437 0.15164062 4.3125 0.1875 C4.3125 0.5175 4.3125 0.8475 4.3125 1.1875 C2.0025 1.5175 -0.3075 1.8475 -2.6875 2.1875 C-1.3675 2.8475 -0.0475 3.5075 1.3125 4.1875 C-0.3375 4.5175 -1.9875 4.8475 -3.6875 5.1875 C-3.6875 6.1775 -3.6875 7.1675 -3.6875 8.1875 C-1.0475 8.5175 1.5925 8.8475 4.3125 9.1875 C4.3125 9.5175 4.3125 9.8475 4.3125 10.1875 C1.0125 10.8475 -2.2875 11.5075 -5.6875 12.1875 C-8.00032587 8.71826119 -8.11228586 7.26544425 -7.6875 3.1875 C-5.42405515 0.09508649 -3.73257559 -0.1622859 0 0 Z " fill="#2E55AA" transform="translate(16.6875,107.8125)"/>
<path d="M0 0 C3.35291118 -0.37254569 4.6038423 -0.31050198 7.3125 1.8125 C9 4 9 4 9 7 C6.50590939 8.57035335 5.29556584 9.0274945 2.3125 8.75 C1.549375 8.5025 0.78625 8.255 0 8 C-0.33 7.34 -0.66 6.68 -1 6 C-0.33333333 4.66666667 0.33333333 3.33333333 1 2 C0.67 1.34 0.34 0.68 0 0 Z " fill="#1F47A3" transform="translate(24,69)"/>
<path d="M0 0 C0.33 1.65 0.66 3.3 1 5 C0.01 5 -0.98 5 -2 5 C-1.67 3.68 -1.34 2.36 -1 1 C-1.99 1.66 -2.98 2.32 -4 3 C-3.67 4.32 -3.34 5.64 -3 7 C-1.02 6.67 0.96 6.34 3 6 C1.125 9.875 1.125 9.875 0 11 C-1.99958364 11.04080783 -4.00045254 11.04254356 -6 11 C-7.44197868 8.11604263 -7.58833581 5.17569521 -8 2 C-4.91190305 0.23537317 -3.76687864 0 0 0 Z " fill="#E9EEF6" transform="translate(178,214)"/>
<path d="M0 0 C2.97 0 5.94 0 9 0 C9 0.66 9 1.32 9 2 C8.01 2 7.02 2 6 2 C6 6.29 6 10.58 6 15 C5.01 15 4.02 15 3 15 C3 10.71 3 6.42 3 2 C2.01 2 1.02 2 0 2 C0 1.34 0 0.68 0 0 Z " fill="#EEF2F8" transform="translate(100,176)"/>
<path d="M0 0 C0.33 0 0.66 0 1 0 C1.33 3.3 1.66 6.6 2 10 C2.99 10.33 3.98 10.66 5 11 C5 9.68 5 8.36 5 7 C6.32 7 7.64 7 9 7 C8.125 12.875 8.125 12.875 7 14 C3.5625 14.25 3.5625 14.25 0 14 C-2 11 -2 11 -1.7578125 8.30078125 C-1.54898438 7.31464844 -1.34015625 6.32851563 -1.125 5.3125 C-0.92132813 4.31863281 -0.71765625 3.32476563 -0.5078125 2.30078125 C-0.34023437 1.54152344 -0.17265625 0.78226563 0 0 Z " fill="#1741A0" transform="translate(126,15)"/>
<path d="M0 0 C0.33 0 0.66 0 1 0 C1 2.31 1 4.62 1 7 C2.98 6.67 4.96 6.34 7 6 C7 7.98 7 9.96 7 12 C4.525 11.01 4.525 11.01 2 10 C1.67 10.66 1.34 11.32 1 12 C0.34 9.69 -0.32 7.38 -1 5 C-2.65 4.67 -4.3 4.34 -6 4 C-5.67 3.01 -5.34 2.02 -5 1 C-3.35 1.33 -1.7 1.66 0 2 C0 1.34 0 0.68 0 0 Z " fill="#153D9E" transform="translate(164,177)"/>
<path d="M0 0 C1.65 0 3.3 0 5 0 C6.1875 1.625 6.1875 1.625 7 4 C5.625 7.25 5.625 7.25 4 10 C1.5625 9.1875 1.5625 9.1875 -1 8 C-1.33 7.01 -1.66 6.02 -2 5 C-0.68 4.01 0.64 3.02 2 2 C1.34 1.34 0.68 0.68 0 0 Z " fill="#1842A1" transform="translate(69,23)"/>
<path d="M0 0 C-0.99 0.495 -0.99 0.495 -2 1 C-2 1.66 -2 2.32 -2 3 C-5.87684087 4.19287411 -8.91621923 5 -13 5 C-13 4.34 -13 3.68 -13 3 C-14.65 3 -16.3 3 -18 3 C-15.03837914 1.37522189 -12.30733073 0.48304114 -9 -0.1875 C-8.154375 -0.36667969 -7.30875 -0.54585938 -6.4375 -0.73046875 C-3.96978589 -1.00334098 -2.34150494 -0.76424119 0 0 Z " fill="#224AA4" transform="translate(237,100)"/>
<path d="M0 0 C4.8274799 1.41292095 8.7162359 3.42974154 13 6 C12.67 6.66 12.34 7.32 12 8 C5.07 7.505 5.07 7.505 -2 7 C1 5 1 5 3 4 C2.01 3.34 1.02 2.68 0 2 C0 1.34 0 0.68 0 0 Z " fill="#0C359A" transform="translate(20,91)"/>
<path d="M0 0 C0.33 0 0.66 0 1 0 C1 1.98 1 3.96 1 6 C4.27773504 5.24849977 4.27773504 5.24849977 6 2 C6.02688151 3.64574566 6.04634123 5.29161413 6.0625 6.9375 C6.07410156 7.85402344 6.08570313 8.77054688 6.09765625 9.71484375 C6 12 6 12 5 13 C3.33382885 13.04063832 1.66611905 13.042721 0 13 C-0.33 12.01 -0.66 11.02 -1 10 C1.475 10.495 1.475 10.495 4 11 C4 10.01 4 9.02 4 8 C2.35 7.67 0.7 7.34 -1 7 C-1.04254356 5.00045254 -1.04080783 2.99958364 -1 1 C-0.67 0.67 -0.34 0.34 0 0 Z " fill="#F8F9FC" transform="translate(147,178)"/>
<path d="M0 0 C0.66 0 1.32 0 2 0 C2.33 1.32 2.66 2.64 3 4 C4.1446875 3.2884375 4.1446875 3.2884375 5.3125 2.5625 C8 1 8 1 11 0 C10.60856977 2.27029534 10.11258722 3.83408198 8.8125 5.75 C6.13307088 7.59788215 4.16778103 7.40439758 1 7 C-1 4 -1 4 -0.625 1.8125 C-0.41875 1.214375 -0.2125 0.61625 0 0 Z " fill="#1C44A1" transform="translate(93,26)"/>
<path d="M0 0 C2.33294775 -0.04241723 4.66702567 -0.04092937 7 0 C8 1 8 1 8.09765625 3.06640625 C8.08605469 3.89011719 8.07445313 4.71382812 8.0625 5.5625 C8.05347656 6.38878906 8.04445313 7.21507812 8.03515625 8.06640625 C8.02355469 8.70449219 8.01195313 9.34257812 8 10 C7.01 10.495 7.01 10.495 6 11 C5.67 8.36 5.34 5.72 5 3 C3.68 2.67 2.36 2.34 1 2 C1 5.63 1 9.26 1 13 C0.67 13 0.34 13 0 13 C0 8.71 0 4.42 0 0 Z " fill="#FAFBFD" transform="translate(112,176)"/>
<path d="M0 0 C1.32 0.33 2.64 0.66 4 1 C4 3.97 4 6.94 4 10 C2.68 10.33 1.36 10.66 0 11 C0 7.37 0 3.74 0 0 Z " fill="#143F9F" transform="translate(114,178)"/>
<path d="M0 0 C3.42691357 1.23749657 6.35302769 2.4510637 9 5 C9 6.32 9 7.64 9 9 C5.00499382 7.6302836 2.19990508 5.74277578 -1 3 C-0.67 2.01 -0.34 1.02 0 0 Z " fill="#113B9D" transform="translate(34,53)"/>
<path d="M0 0 C0 0.33 0 0.66 0 1 C-1.65 1 -3.3 1 -5 1 C-4.67 1.99 -4.34 2.98 -4 4 C-4.16011121 6.70123106 -4.60440608 9.31875231 -5 12 C-5.66 11.34 -6.32 10.68 -7 10 C-7.66 11.32 -8.32 12.64 -9 14 C-9.08114106 12.22992286 -9.13925505 10.45877902 -9.1875 8.6875 C-9.22230469 7.70136719 -9.25710937 6.71523437 -9.29296875 5.69921875 C-9 3 -9 3 -7.6875 1.15625 C-5.1703167 -0.5684867 -2.96507269 -0.19767151 0 0 Z " fill="#1441A0" transform="translate(115,9)"/>
<path d="M0 0 C0.99 0.99 1.98 1.98 3 3 C2.030625 3.61875 1.06125 4.2375 0.0625 4.875 C-3.02835362 6.65678846 -3.02835362 6.65678846 -4 9 C-6 9 -6 9 -7.625 7.5 C-8.07875 7.005 -8.5325 6.51 -9 6 C-8.67 5.01 -8.34 4.02 -8 3 C-7.01 3.33 -6.02 3.66 -5 4 C-2.30566683 2.12802546 -2.30566683 2.12802546 0 0 Z " fill="#E5EAF4" transform="translate(186,206)"/>
<path d="M0 0 C3.5 0.25 3.5 0.25 5.5 2.25 C5.5 3.57 5.5 4.89 5.5 6.25 C4.18 6.25 2.86 6.25 1.5 6.25 C1.5 5.26 1.5 4.27 1.5 3.25 C0.6028125 3.559375 0.6028125 3.559375 -0.3125 3.875 C-2.5 4.25 -2.5 4.25 -5.5 2.25 C-3.5 0.25 -3.5 0.25 0 0 Z " fill="#1942A0" transform="translate(129.5,8.75)"/>
<path d="M0 0 C2.875 -0.125 2.875 -0.125 6 0 C6.66 0.66 7.32 1.32 8 2 C7.38125 2.598125 6.7625 3.19625 6.125 3.8125 C3.86323046 6.00811144 3.86323046 6.00811144 2 9 C0.14223235 5.86501708 -0.20140476 3.62528568 0 0 Z " fill="#E0E6F2" transform="translate(161,213)"/>
<path d="M0 0 C0.33 0 0.66 0 1 0 C1 2.64 1 5.28 1 8 C-0.875 8.625 -0.875 8.625 -3 9 C-5 7 -5 7 -5.125 4.375 C-5.08375 3.59125 -5.0425 2.8075 -5 2 C-3.68 2 -2.36 2 -1 2 C-0.67 1.34 -0.34 0.68 0 0 Z " fill="#D6DEEF" transform="translate(163,182)"/>
<path d="M0 0 C1.32 0 2.64 0 4 0 C4 0.66 4 1.32 4 2 C3.01 2 2.02 2 1 2 C1 3.65 1 5.3 1 7 C2.32 7.33 3.64 7.66 5 8 C4.67 9.32 4.34 10.64 4 12 C4 11.01 4 10.02 4 9 C3.195625 8.855625 2.39125 8.71125 1.5625 8.5625 C-1 8 -1 8 -2 7 C-2.1875 4.5625 -2.1875 4.5625 -2 2 C-1.34 1.34 -0.68 0.68 0 0 Z " fill="#3558AB" transform="translate(106,227)"/>
<path d="M0 0 C0 1.32 0 2.64 0 4 C-2.64 4.66 -5.28 5.32 -8 6 C-8.66 5.01 -9.32 4.02 -10 3 C-3.375 0 -3.375 0 0 0 Z " fill="#1D45A2" transform="translate(236,89)"/>
<path d="M0 0 C0.66 0 1.32 0 2 0 C2 4.29 2 8.58 2 13 C1.34 13 0.68 13 0 13 C0 10.36 0 7.72 0 5 C-2.31 5.33 -4.62 5.66 -7 6 C-7 5.34 -7 4.68 -7 4 C-4.69 4 -2.38 4 0 4 C0 2.68 0 1.36 0 0 Z " fill="#062E96" transform="translate(132,226)"/>
<path d="M0 0 C0.33 0 0.66 0 1 0 C1.33 2.64 1.66 5.28 2 8 C2.33 8 2.66 8 3 8 C3 9.65 3 11.3 3 13 C4.65 13 6.3 13 8 13 C8 13.66 8 14.32 8 15 C5.36 15 2.72 15 0 15 C0 10.05 0 5.1 0 0 Z " fill="#E8EDF6" transform="translate(79,176)"/>
<path d="M0 0 C0.7425 0.804375 1.485 1.60875 2.25 2.4375 C4.75304829 4.76988591 5.7180955 5.63534394 9 6 C9 6.99 9 7.98 9 9 C5.7 8.34 2.4 7.68 -1 7 C-0.67 4.69 -0.34 2.38 0 0 Z " fill="#1D45A2" transform="translate(146,24)"/>
<path d="M0 0 C0.33 0 0.66 0 1 0 C1.336611 1.77021322 1.66917293 3.54119674 2 5.3125 C2.185625 6.29863281 2.37125 7.28476562 2.5625 8.30078125 C3 11 3 11 3 14 C2.01 14 1.02 14 0 14 C-1 13 -1 13 -1.125 9.25 C-1.09051205 6.05411684 -0.77827069 3.11308275 0 0 Z " fill="#073298" transform="translate(108,14)"/>
<path d="M0 0 C2.875 -0.125 2.875 -0.125 6 0 C6.66 0.66 7.32 1.32 8 2 C7.7578125 4.1640625 7.7578125 4.1640625 7.125 6.625 C6.92132813 7.44226563 6.71765625 8.25953125 6.5078125 9.1015625 C6.34023437 9.72804688 6.17265625 10.35453125 6 11 C5.67 11 5.34 11 5 11 C4.87625 9.329375 4.87625 9.329375 4.75 7.625 C4.42126213 3.94246056 4.42126213 3.94246056 1.9375 2.5625 C1.298125 2.376875 0.65875 2.19125 0 2 C0 1.34 0 0.68 0 0 Z " fill="#0C379B" transform="translate(110,10)"/>
<path d="M0 0 C-1.97420135 2.52259061 -2.96745642 2.9929808 -6.1875 3.6875 C-7.5796875 3.8421875 -7.5796875 3.8421875 -9 4 C-9.33 3.01 -9.66 2.02 -10 1 C-6.21812119 -0.83691257 -4.05431692 -1.15837626 0 0 Z " fill="#113A9C" transform="translate(224,86)"/>
<path d="M0 0 C0.33 1.32 0.66 2.64 1 4 C1.66 4 2.32 4 3 4 C2.34 5.32 1.68 6.64 1 8 C-0.65 7.67 -2.3 7.34 -4 7 C-4.33 5.68 -4.66 4.36 -5 3 C-2.525 3.99 -2.525 3.99 0 5 C0 3.35 0 1.7 0 0 Z " fill="#CCD6EB" transform="translate(171,184)"/>
<path d="M0 0 C1.32 0 2.64 0 4 0 C4 1.32 4 2.64 4 4 C3.01 4 2.02 4 1 4 C0.67 4.99 0.34 5.98 0 7 C-0.66 7.66 -1.32 8.32 -2 9 C-2.125 5.625 -2.125 5.625 -2 2 C-1.34 1.34 -0.68 0.68 0 0 Z " fill="#1F49A4" transform="translate(11,126)"/>
<path d="M0 0 C1.32 0.66 2.64 1.32 4 2 C3.34 2 2.68 2 2 2 C1.01 5.3 0.02 8.6 -1 12 C-1.66 11.34 -2.32 10.68 -3 10 C-3.99 10.495 -3.99 10.495 -5 11 C-4.731875 10.484375 -4.46375 9.96875 -4.1875 9.4375 C-2.67650593 6.33598585 -1.34427274 3.17737194 0 0 Z " fill="#C7D2E9" transform="translate(72,210)"/>
<path d="M0 0 C0.33 1.65 0.66 3.3 1 5 C0.01 5 -0.98 5 -2 5 C-1.67 3.68 -1.34 2.36 -1 1 C-4.22404978 2.66954819 -4.22404978 2.66954819 -4.6875 5.625 C-4.790625 6.40875 -4.89375 7.1925 -5 8 C-8 4.25 -8 4.25 -8 2 C-4.91190305 0.23537317 -3.76687864 0 0 0 Z " fill="#DEE5F2" transform="translate(178,214)"/>
<path d="M0 0 C1.32 0.66 2.64 1.32 4 2 C3.01 2.33 2.02 2.66 1 3 C1 4.32 1 5.64 1 7 C-1.97 6.505 -1.97 6.505 -5 6 C-3.86695008 2.60085025 -2.87481525 1.94745549 0 0 Z " fill="#3355AA" transform="translate(187,209)"/>
<path d="M0 0 C0 1.32 0 2.64 0 4 C-2.58789062 5.07421875 -2.58789062 5.07421875 -5.17578125 6.1484375 C-7.26533932 7.06806692 -7.26533932 7.06806692 -10 9 C-10 8.01 -10 7.02 -10 6 C-8.3203125 4.39453125 -8.3203125 4.39453125 -6.125 2.8125 C-5.04605469 2.01779297 -5.04605469 2.01779297 -3.9453125 1.20703125 C-2 0 -2 0 0 0 Z " fill="#264AA4" transform="translate(190,202)"/>
<path d="M0 0 C3 1 3 1 4.6875 4.375 C6 8 6 8 6 11 C5.01 10.67 4.02 10.34 3 10 C2.05078125 7.71484375 2.05078125 7.71484375 1.3125 4.9375 C1.06113281 4.01839844 0.80976563 3.09929687 0.55078125 2.15234375 C0.36902344 1.44207031 0.18726563 0.73179687 0 0 Z " fill="#153C9D" transform="translate(161,221)"/>
<path d="M0 0 C0.495 0.37125 0.99 0.7425 1.5 1.125 C-4.84719711 4.17653707 -4.84719711 4.17653707 -7.875 3.9375 C-9.5 3.125 -9.5 3.125 -10.5 1.125 C-3.11538462 -1.09038462 -3.11538462 -1.09038462 0 0 Z " fill="#3255AA" transform="translate(177.5,211.875)"/>
<path d="M0 0 C1.62490954 -0.02698189 3.24994633 -0.04638757 4.875 -0.0625 C5.77992187 -0.07410156 6.68484375 -0.08570312 7.6171875 -0.09765625 C10 0 10 0 12 1 C12 1.66 12 2.32 12 3 C7.45194365 3.17835515 4.1205746 2.99785435 0 1 C0 0.67 0 0.34 0 0 Z " fill="#002C96" transform="translate(13,109)"/>
<path d="M0 0 C2.64 0 5.28 0 8 0 C8 0.66 8 1.32 8 2 C3.545 3.485 3.545 3.485 -1 5 C-0.67 3.35 -0.34 1.7 0 0 Z " fill="#294EA7" transform="translate(13,95)"/>
<path d="M0 0 C4.455 0.99 4.455 0.99 9 2 C9 2.99 9 3.98 9 5 C6.36 4.67 3.72 4.34 1 4 C0.67 2.68 0.34 1.36 0 0 Z " fill="#2148A3" transform="translate(151,12)"/>
<path d="M0 0 C0 1.98 0 3.96 0 6 C-2.475 5.01 -2.475 5.01 -5 4 C-5.33 4.66 -5.66 5.32 -6 6 C-6.33 4.68 -6.66 3.36 -7 2 C-2.25 0 -2.25 0 0 0 Z " fill="#234AA4" transform="translate(171,183)"/>
<path d="M0 0 C0.33 1.65 0.66 3.3 1 5 C-0.32 5.33 -1.64 5.66 -3 6 C-3.66 4.68 -4.32 3.36 -5 2 C-2 0 -2 0 0 0 Z " fill="#E5EAF4" transform="translate(72,26)"/>
<path d="M0 0 C0.93065133 2.60582371 1.14917407 3.64198224 0.0625 6.25 C-0.4634375 7.11625 -0.4634375 7.11625 -1 8 C-1.99 8 -2.98 8 -4 8 C-4 6.35 -4 4.7 -4 3 C-3.01 2.67 -2.02 2.34 -1 2 C-0.67 1.34 -0.34 0.68 0 0 Z " fill="#DAE1F0" transform="translate(111,226)"/>
<path d="M0 0 C0.94875 0.350625 1.8975 0.70125 2.875 1.0625 C2.875 2.0525 2.875 3.0425 2.875 4.0625 C0.235 3.7325 -2.405 3.4025 -5.125 3.0625 C-5.125 2.0725 -5.125 1.0825 -5.125 0.0625 C-3.125 -0.9375 -3.125 -0.9375 0 0 Z " fill="#1C46A3" transform="translate(148.125,184.9375)"/>
<path d="M0 0 C2.31 0 4.62 0 7 0 C7.33 1.32 7.66 2.64 8 4 C7.01 4 6.02 4 5 4 C5 3.34 5 2.68 5 2 C4.01 2 3.02 2 2 2 C1.67 2.66 1.34 3.32 1 4 C0.67 2.68 0.34 1.36 0 0 Z " fill="#E9EDF6" transform="translate(90,176)"/>
<path d="M0 0 C1.485 0.99 1.485 0.99 3 2 C5.0492094 2.45139459 5.0492094 2.45139459 7.1875 2.625 C8.445625 2.74875 9.70375 2.8725 11 3 C11 3.33 11 3.66 11 4 C9.35567294 4.36109542 7.7094792 4.71370076 6.0625 5.0625 C5.14597656 5.25972656 4.22945312 5.45695312 3.28515625 5.66015625 C2.53105469 5.77230469 1.77695313 5.88445312 1 6 C0 5 0 5 -0.0625 2.4375 C-0.041875 1.633125 -0.02125 0.82875 0 0 Z " fill="#1D46A2" transform="translate(10,114)"/>
<path d="M0 0 C2 2 2 2 2.1953125 3.9453125 C2.13020833 5.96354167 2.06510417 7.98177083 2 10 C-0.6465335 7.3534665 -1.59941997 4.43778736 -3 1 C-2.01 0.67 -1.02 0.34 0 0 Z " fill="#093499" transform="translate(237,99)"/>
<path d="M0 0 C1.65 0.33 3.3 0.66 5 1 C5 2.32 5 3.64 5 5 C4.01 5.495 4.01 5.495 3 6 C2.67 5.34 2.34 4.68 2 4 C1.01 3.67 0.02 3.34 -1 3 C-0.67 2.01 -0.34 1.02 0 0 Z " fill="#0B379B" transform="translate(97,22)"/>
<path d="M0 0 C0 0.66 0 1.32 0 2 C-2.31 2.33 -4.62 2.66 -7 3 C-7.33 3.99 -7.66 4.98 -8 6 C-9.32 5.01 -10.64 4.02 -12 3 C-10.56445975 2.49440092 -9.1264798 1.9957251 -7.6875 1.5 C-6.88699219 1.2215625 -6.08648437 0.943125 -5.26171875 0.65625 C-3 0 -3 0 0 0 Z " fill="#2148A4" transform="translate(233,81)"/>
<path d="M0 0 C1.65 0.33 3.3 0.66 5 1 C5 2.32 5 3.64 5 5 C2.5625 4.625 2.5625 4.625 0 4 C-0.33 3.34 -0.66 2.68 -1 2 C-0.67 1.34 -0.34 0.68 0 0 Z " fill="#E8EDF6" transform="translate(24,73)"/>
<path d="M0 0 C-0.1875 1.8125 -0.1875 1.8125 -1 4 C-3.5625 5.75 -3.5625 5.75 -6 7 C-6.33 5.68 -6.66 4.36 -7 3 C-2.25 0 -2.25 0 0 0 Z " fill="#1C43A1" transform="translate(69,44)"/>
<path d="M0 0 C0.33 0 0.66 0 1 0 C1.03738281 0.69867188 1.07476562 1.39734375 1.11328125 2.1171875 C1.17902344 3.02726562 1.24476562 3.93734375 1.3125 4.875 C1.37050781 5.77992187 1.42851563 6.68484375 1.48828125 7.6171875 C1.7882039 10.36221601 1.7882039 10.36221601 5 12 C3.02 12.33 1.04 12.66 -1 13 C-2.40742022 10.18515955 -1.66652164 8.43063887 -1.0625 5.375 C-0.86785156 4.37210938 -0.67320313 3.36921875 -0.47265625 2.3359375 C-0.31667969 1.56507812 -0.16070312 0.79421875 0 0 Z " fill="#0E3C9D" transform="translate(126,15)"/>
<path d="M0 0 C-0.3125 1.9375 -0.3125 1.9375 -1 4 C-1.99 4.33 -2.98 4.66 -4 5 C-6.1875 3.5625 -6.1875 3.5625 -8 2 C-4.91190305 0.23537317 -3.76687864 0 0 0 Z " fill="#1E45A2" transform="translate(229,73)"/>
<path d="M0 0 C0.99 0.33 1.98 0.66 3 1 C2.67 3.64 2.34 6.28 2 9 C1.34 9 0.68 9 0 9 C0 6.03 0 3.06 0 0 Z " fill="#093499" transform="translate(178,22)"/>
<path d="M0 0 C1.98 0 3.96 0 6 0 C6.33 1.32 6.66 2.64 7 4 C5.02 4.99 5.02 4.99 3 6 C3.66 4.68 4.32 3.36 5 2 C3.35 2 1.7 2 0 2 C0 1.34 0 0.68 0 0 Z " fill="#1A41A0" transform="translate(130,240)"/>
<path d="M0 0 C2.31 0.33 4.62 0.66 7 1 C7 1.66 7 2.32 7 3 C5.02 3 3.04 3 1 3 C0.67 3.99 0.34 4.98 0 6 C0 4.02 0 2.04 0 0 Z " fill="#7A92C8" transform="translate(114,224)"/>
<path d="M0 0 C0.66 0 1.32 0 2 0 C1.67 1.32 1.34 2.64 1 4 C1.66 4.33 2.32 4.66 3 5 C3 5.66 3 6.32 3 7 C1.68 6.67 0.36 6.34 -1 6 C-1.625 4.125 -1.625 4.125 -2 2 C-1.34 1.34 -0.68 0.68 0 0 Z " fill="#3F60AF" transform="translate(175,215)"/>
<path d="M0 0 C0.66 0 1.32 0 2 0 C2.33 1.32 2.66 2.64 3 4 C1.68 4.99 0.36 5.98 -1 7 C-1.625 4.625 -1.625 4.625 -2 2 C-1.34 1.34 -0.68 0.68 0 0 Z " fill="#1C45A2" transform="translate(204,47)"/>
<path d="M0 0 C2.475 0.495 2.475 0.495 5 1 C5 1.99 5 2.98 5 4 C3.02 4.99 3.02 4.99 1 6 C0.67 4.02 0.34 2.04 0 0 Z " fill="#DAE1F0" transform="translate(151,223)"/>
<path d="M0 0 C0.99 0 1.98 0 3 0 C3.33 2.31 3.66 4.62 4 7 C2.35 7.33 0.7 7.66 -1 8 C-0.34 7.34 0.32 6.68 1 6 C0.67801034 2.90073181 0.67801034 2.90073181 0 0 Z " fill="#0C349A" transform="translate(177,213)"/>
<path d="M0 0 C2.875 -0.125 2.875 -0.125 6 0 C6.66 0.66 7.32 1.32 8 2 C7.67 2.33 7.34 2.66 7 3 C4.30917128 2.82364548 1.67148554 2.38164079 -1 2 C-0.67 1.34 -0.34 0.68 0 0 Z " fill="#053198" transform="translate(13,99)"/>
<path d="M0 0 C1.32 0 2.64 0 4 0 C4.66 1.32 5.32 2.64 6 4 C4.68 4.33 3.36 4.66 2 5 C1.34 3.35 0.68 1.7 0 0 Z " fill="#0D389B" transform="translate(77,34)"/>
<path d="M0 0 C0.66 1.32 1.32 2.64 2 4 C-0.31 4.33 -2.62 4.66 -5 5 C-4 2 -4 2 -1.9375 0.8125 C-1.298125 0.544375 -0.65875 0.27625 0 0 Z " fill="#2148A3" transform="translate(115,25)"/>
<path d="M0 0 C2.0625 0.4375 2.0625 0.4375 4 1 C3.67 2.32 3.34 3.64 3 5 C2.01 5 1.02 5 0 5 C-0.5625 3.0625 -0.5625 3.0625 -1 1 C-0.67 0.67 -0.34 0.34 0 0 Z " fill="#E1E7F3" transform="translate(96,25)"/>
<path d="M0 0 C1.4540625 0.0309375 1.4540625 0.0309375 2.9375 0.0625 C2.9375 0.3925 2.9375 0.7225 2.9375 1.0625 C1.2875 1.0625 -0.3625 1.0625 -2.0625 1.0625 C-1.7325 2.0525 -1.4025 3.0425 -1.0625 4.0625 C-1.22261121 6.76373106 -1.66690608 9.38125231 -2.0625 12.0625 C-2.3925 12.0625 -2.7225 12.0625 -3.0625 12.0625 C-3.25651633 10.25068595 -3.44254375 8.43801468 -3.625 6.625 C-3.72941406 5.61566406 -3.83382812 4.60632813 -3.94140625 3.56640625 C-3.98136719 2.74011719 -4.02132812 1.91382813 -4.0625 1.0625 C-3.0625 0.0625 -3.0625 0.0625 0 0 Z " fill="#4B6EB6" transform="translate(112.0625,8.9375)"/>
<path d="M0 0 C0.66 0.33 1.32 0.66 2 1 C0.75023244 4.65316671 0.32901247 5.78065836 -3 8 C-3.33 7.34 -3.66 6.68 -4 6 C-2.68 4.02 -1.36 2.04 0 0 Z " fill="#10389B" transform="translate(67,215)"/>
<path d="M0 0 C1.98 0 3.96 0 6 0 C6.33 0.99 6.66 1.98 7 3 C4.36 3 1.72 3 -1 3 C-0.67 2.01 -0.34 1.02 0 0 Z " fill="#E0E6F3" transform="translate(157,176)"/>
<path d="M0 0 C0.66 0 1.32 0 2 0 C2 1.65 2 3.3 2 5 C0.35 5 -1.3 5 -3 5 C-3.33 4.34 -3.66 3.68 -4 3 C-3.01 3 -2.02 3 -1 3 C-0.67 2.01 -0.34 1.02 0 0 Z " fill="#133D9E" transform="translate(239,130)"/>
<path d="M0 0 C0.33 0.99 0.66 1.98 1 3 C-2.69541586 3.95024979 -5.30458414 3.95024979 -9 3 C-9 2.67 -9 2.34 -9 2 C-6.03 1.34 -3.06 0.68 0 0 Z " fill="#012C95" transform="translate(27,132)"/>
<path d="M0 0 C2.64 0.33 5.28 0.66 8 1 C8 1.66 8 2.32 8 3 C5.36 3 2.72 3 0 3 C0 2.01 0 1.02 0 0 Z " fill="#A9BADC" transform="translate(229,130)"/>
<path d="M0 0 C0.33 0.66 0.66 1.32 1 2 C1.99 2 2.98 2 4 2 C4.33 3.65 4.66 5.3 5 7 C2.525 6.01 2.525 6.01 0 5 C0 3.35 0 1.7 0 0 Z " fill="#2149A4" transform="translate(15,86)"/>
<path d="M0 0 C1.98 0.495 1.98 0.495 4 1 C3.67 2.65 3.34 4.3 3 6 C2.67 5.34 2.34 4.68 2 4 C1.34 4 0.68 4 0 4 C-0.33 4.66 -0.66 5.32 -1 6 C-0.67 4.02 -0.34 2.04 0 0 Z " fill="#1843A1" transform="translate(191,48)"/>
<path d="M0 0 C2.86724686 0.57344937 3.8614515 0.8614515 6 3 C5.67 3.66 5.34 4.32 5 5 C2.525 4.01 2.525 4.01 0 3 C0 2.01 0 1.02 0 0 Z " fill="#E4E9F4" transform="translate(93,16)"/>
<path d="M0 0 C1.64826111 2.96687001 2.44271087 5.65626525 3 9 C2.01 9 1.02 9 0 9 C-1.125 3.375 -1.125 3.375 0 0 Z " fill="#264EA6" transform="translate(158,224)"/>
<path d="M0 0 C1.98 0 3.96 0 6 0 C6 0.66 6 1.32 6 2 C5.01 2 4.02 2 3 2 C2.67 2.99 2.34 3.98 2 5 C1.34 4.34 0.68 3.68 0 3 C0 2.01 0 1.02 0 0 Z " fill="#12399C" transform="translate(117,230)"/>
<path d="M0 0 C-0.33 0.99 -0.66 1.98 -1 3 C-3.31 3.33 -5.62 3.66 -8 4 C-8 3.34 -8 2.68 -8 2 C-5.09399739 0.74335022 -3.20395416 0 0 0 Z " fill="#2B4EA7" transform="translate(150,222)"/>
<path d="M0 0 C0.99 0 1.98 0 3 0 C3 1.98 3 3.96 3 6 C2.01 6 1.02 6 0 6 C0 4.02 0 2.04 0 0 Z " fill="#2C51A8" transform="translate(148,178)"/>
<path d="M0 0 C0.99 0 1.98 0 3 0 C3 0.66 3 1.32 3 2 C3.99 2 4.98 2 6 2 C5.67 2.99 5.34 3.98 5 5 C2.525 4.01 2.525 4.01 0 3 C0 2.01 0 1.02 0 0 Z " fill="#2A4EA6" transform="translate(92,178)"/>
<path d="M0 0 C2.6875 0.3125 2.6875 0.3125 5 1 C4.01 2.32 3.02 3.64 2 5 C2 4.34 2 3.68 2 3 C0.35 3 -1.3 3 -3 3 C-1.8125 1.4375 -1.8125 1.4375 0 0 Z " fill="#214AA4" transform="translate(235,128)"/>
<path d="M0 0 C1.32 0 2.64 0 4 0 C4.33 1.65 4.66 3.3 5 5 C0.25 3.125 0.25 3.125 -2 2 C-1.34 1.34 -0.68 0.68 0 0 Z " fill="#0B3399" transform="translate(166,216)"/>
<path d="M0 0 C1.32 0.66 2.64 1.32 4 2 C3.67 2.99 3.34 3.98 3 5 C1.68 4.67 0.36 4.34 -1 4 C-0.67 2.68 -0.34 1.36 0 0 Z " fill="#E5EAF4" transform="translate(66,209)"/>
<path d="M0 0 C-0.33 1.98 -0.66 3.96 -1 6 C-1.33 5.34 -1.66 4.68 -2 4 C-3.32 4.33 -4.64 4.66 -6 5 C-5.625 3.0625 -5.625 3.0625 -5 1 C-3 0 -3 0 0 0 Z " fill="#4063B1" transform="translate(66,209)"/>
<path d="M0 0 C0.66 0 1.32 0 2 0 C2 1.98 2 3.96 2 6 C1.01 6 0.02 6 -1 6 C-1.042721 4.33388095 -1.04063832 2.66617115 -1 1 C-0.67 0.67 -0.34 0.34 0 0 Z " fill="#2C51A8" transform="translate(159,183)"/>
<path d="M0 0 C0.99 0.33 1.98 0.66 3 1 C3.6875 3.0625 3.6875 3.0625 4 5 C3.01 5 2.02 5 1 5 C0.34 3.68 -0.32 2.36 -1 1 C-0.67 0.67 -0.34 0.34 0 0 Z " fill="#1C43A1" transform="translate(216,55)"/>
<path d="M0 0 C0.99 0.33 1.98 0.66 3 1 C2.34 2.65 1.68 4.3 1 6 C-0.32 5.34 -1.64 4.68 -3 4 C-2.01 2.68 -1.02 1.36 0 0 Z " fill="#274DA6" transform="translate(45,40)"/>
<path d="M0 0 C1.98 0.99 3.96 1.98 6 3 C6 3.66 6 4.32 6 5 C4.35 5 2.7 5 1 5 C0.67 3.35 0.34 1.7 0 0 Z " fill="#2249A4" transform="translate(151,19)"/>
</svg>
